<svg width="80" height="60" viewBox="0 0 80 60" fill="none" xmlns="http://www.w3.org/2000/svg">
<path d="M68.4 20.5345C70.6751 18.3063 72 15.2623 72 12C72 5.38344 66.6172 0 60 0C57.8137 0 55.6628 0.600938 53.7773 1.73828C53.1472 2.11922 52.9441 2.93813 53.3242 3.56906C53.7044 4.2 54.5247 4.40109 55.155 4.02219C56.625 3.13547 58.2995 2.66672 60 2.66672C65.1458 2.66672 69.3333 6.85359 69.3333 12C69.3333 15.1692 67.7461 18.0905 65.082 19.8183C62.845 21.2858 60.0091 21.7089 57.4192 20.9713C56.7187 20.7694 55.9739 21.1783 55.7708 21.8866C55.5689 22.5948 55.9791 23.3325 56.6875 23.535C57.7656 23.8436 58.8801 23.9998 60 23.9998C62.0966 23.9998 64.1231 23.428 65.9223 22.3952C72.767 24.8753 77.3333 31.3377 77.3333 38.6666V45.3333H65.1751C64.2308 36.4277 58.628 28.6345 50.4556 24.9341C53.0562 22.2863 54.6666 18.6625 54.6666 14.6667C54.6667 6.57938 48.0872 0 40 0C31.9128 0 25.3333 6.57938 25.3333 14.6667C25.3333 18.6637 26.9445 22.2886 29.5466 24.9367C26.7962 26.1863 24.2455 27.9344 22.082 30.0855C17.9347 34.2447 15.4109 39.583 14.8119 45.3336H2.66672V38.6669C2.66672 34.0497 4.47016 29.6963 7.73969 26.413C9.53953 24.6245 11.7308 23.2602 14.0902 22.4027C15.8897 23.4312 17.9102 24 20 24C21.1198 24 22.2344 23.8438 23.3125 23.5352C24.0208 23.3327 24.4309 22.595 24.2292 21.8867C24.0261 21.1784 23.2812 20.7702 22.5808 20.9714C19.9922 21.7103 17.1577 21.2878 14.9116 19.8152C12.2541 18.0905 10.6667 15.1694 10.6667 12C10.6667 6.85359 14.8542 2.66672 20 2.66672C21.7005 2.66672 23.375 3.13547 24.845 4.02219C25.4778 4.40109 26.2942 4.19797 26.6758 3.56906C27.0559 2.93828 26.8528 2.11922 26.2227 1.73828C24.3372 0.600938 22.1862 0 20 0C13.3828 0 8 5.38344 8 12C8 15.2598 9.32265 18.3014 11.5912 20.5277C9.47672 21.5106 7.52375 22.8677 5.85422 24.5261C2.07937 28.3177 0 33.3392 0 38.6667V46.6667C0 47.4031 0.596406 48 1.33328 48H14.6666V58.6667C14.6666 59.4031 15.263 60 15.9998 60H63.9998C64.7369 60 65.3331 59.403 65.3331 58.6667V48H78.6664C79.4034 48 79.9997 47.403 79.9997 46.6667V38.6667C80 30.7831 75.4184 23.77 68.4 20.5345ZM28 14.6667C28 8.05016 33.3828 2.66672 40 2.66672C46.6172 2.66672 52 8.05016 52 14.6667C52 21.2833 46.6172 26.6667 40 26.6667C33.3828 26.6667 28 21.2831 28 14.6667ZM62.6667 57.3333H17.3333V48C17.3333 41.9544 19.69 36.2611 23.9661 31.972C26.2187 29.7314 28.9497 27.9934 31.8777 26.8691C34.205 28.4233 36.9975 29.3333 40 29.3333C43.0075 29.3333 45.8048 28.4206 48.1344 26.8617C56.8497 30.2103 62.6667 38.6125 62.6667 48V57.3333Z" fill="#C5A56F"/>
</svg>
