<svg width="80" height="80" viewBox="0 0 80 80" fill="none" xmlns="http://www.w3.org/2000/svg">
<mask id="mask0_39_5262" style="mask-type:luminance" maskUnits="userSpaceOnUse" x="0" y="0" width="80" height="80">
<path d="M0 7.62939e-06H80V80H0V7.62939e-06Z" fill="white"/>
</mask>
<g mask="url(#mask0_39_5262)">
<path d="M22.4753 49.6083H19.0676C17.4981 49.6083 16.2256 50.8806 16.2256 52.4501V59.2864C16.2256 60.8561 17.4981 62.1284 19.0676 62.1284H22.4753C24.0448 62.1284 25.3171 60.8561 25.3171 59.2864V52.4501C25.3171 50.8806 24.0448 49.6083 22.4753 49.6083Z" stroke="#C5A56F" stroke-width="2" stroke-miterlimit="10" stroke-linecap="round" stroke-linejoin="round"/>
<path d="M22.4753 29.1971H19.0676C17.4981 29.1971 16.2256 30.4696 16.2256 32.039V38.8754C16.2256 40.4449 17.4981 41.7173 19.0676 41.7173H22.4753C24.0448 41.7173 25.3171 40.4449 25.3171 38.8754V32.039C25.3171 30.4696 24.0448 29.1971 22.4753 29.1971Z" stroke="#C5A56F" stroke-width="2" stroke-miterlimit="10" stroke-linecap="round" stroke-linejoin="round"/>
<path d="M41.7039 29.1971H38.2962C36.7267 29.1971 35.4543 30.4696 35.4543 32.039V38.8754C35.4543 40.4449 36.7267 41.7173 38.2962 41.7173H41.7039C43.2734 41.7173 44.5458 40.4449 44.5458 38.8754V32.039C44.5458 30.4696 43.2734 29.1971 41.7039 29.1971Z" stroke="#C5A56F" stroke-width="2" stroke-miterlimit="10" stroke-linecap="round" stroke-linejoin="round"/>
<path d="M57.5247 49.6083H60.9324C62.5019 49.6083 63.7744 50.8806 63.7744 52.4501V59.2864C63.7744 60.8561 62.5019 62.1284 60.9324 62.1284H57.5247C55.9552 62.1284 54.6829 60.8561 54.6829 59.2864V52.4501C54.6829 50.8806 55.9552 49.6083 57.5247 49.6083Z" stroke="#C5A56F" stroke-width="2" stroke-miterlimit="10" stroke-linecap="round" stroke-linejoin="round"/>
<path d="M57.5247 29.1971H60.9324C62.5019 29.1971 63.7744 30.4696 63.7744 32.039V38.8754C63.7744 40.4449 62.5019 41.7173 60.9324 41.7173H57.5247C55.9552 41.7173 54.6829 40.4449 54.6829 38.8754V32.039C54.6829 30.4696 55.9552 29.1971 57.5247 29.1971Z" stroke="#C5A56F" stroke-width="2" stroke-miterlimit="10" stroke-linecap="round" stroke-linejoin="round"/>
<path d="M57.5374 6.25017V15.1278C57.6355 15.1445 60.6486 15.1278 60.6486 15.1278" stroke="#C5A56F" stroke-width="2" stroke-miterlimit="10" stroke-linecap="round" stroke-linejoin="round"/>
<path d="M19.3516 6.2501V15.1353" stroke="#C5A56F" stroke-width="2" stroke-miterlimit="10" stroke-linecap="round" stroke-linejoin="round"/>
<path d="M25.5002 6.2501V15.1353" stroke="#C5A56F" stroke-width="2" stroke-miterlimit="10" stroke-linecap="round" stroke-linejoin="round"/>
<path d="M19.3516 10.5405H25.5002" stroke="#C5A56F" stroke-width="2" stroke-miterlimit="10" stroke-linecap="round" stroke-linejoin="round"/>
<path d="M53.3542 6.33119H49.6445V15.1353H53.3542" stroke="#C5A56F" stroke-width="2" stroke-miterlimit="10" stroke-linecap="round" stroke-linejoin="round"/>
<path d="M53.0806 10.7334H49.6445" stroke="#C5A56F" stroke-width="2" stroke-miterlimit="10" stroke-linecap="round" stroke-linejoin="round"/>
<path d="M40.6655 6.25H45.5724" stroke="#C5A56F" stroke-width="2" stroke-miterlimit="10" stroke-linecap="round" stroke-linejoin="round"/>
<path d="M43.1091 6.53385V15.1353" stroke="#C5A56F" stroke-width="2" stroke-miterlimit="10" stroke-linecap="round" stroke-linejoin="round"/>
<path d="M38.0802 10.6928C38.0802 13.1463 36.0912 15.1353 33.6376 15.1353C31.1841 15.1353 29.1951 13.1463 29.1951 10.6928C29.1951 8.23916 31.1841 6.2501 33.6376 6.2501C36.0912 6.2501 38.0802 8.23916 38.0802 10.6928Z" stroke="#C5A56F" stroke-width="2" stroke-miterlimit="10" stroke-linecap="round" stroke-linejoin="round"/>
<path d="M17.7455 20.1378H62.2547C63.6695 20.1378 65.0016 20.49 66.1703 21.1094V7.50016C66.1703 4.00516 63.3372 1.17203 59.842 1.17203H20.158C16.6631 1.17203 13.8298 4.00516 13.8298 7.50016V21.1094C14.9986 20.49 16.3306 20.1378 17.7455 20.1378Z" stroke="#C5A56F" stroke-width="2" stroke-miterlimit="10" stroke-linecap="round" stroke-linejoin="round"/>
<path d="M9.36963 57.0837V68.4785C9.55119 68.4576 9.73541 68.4457 9.9226 68.4457H70.0779C70.2649 68.4457 70.4492 68.4576 70.6307 68.4785V40.3855" stroke="#C5A56F" stroke-width="2" stroke-miterlimit="10" stroke-linecap="round" stroke-linejoin="round"/>
<path d="M70.6307 35.6984V28.5138C70.6307 23.888 66.8807 20.1381 62.2548 20.1381H17.7456C13.1196 20.1381 9.36963 23.888 9.36963 28.5138V52.3965" stroke="#C5A56F" stroke-width="2" stroke-miterlimit="10" stroke-linecap="round" stroke-linejoin="round"/>
<path d="M47.8266 68.4458V53.5206C47.8266 51.3597 46.0749 49.6081 43.9141 49.6081H36.0858C33.9251 49.6081 32.1733 51.3597 32.1733 53.5206V68.4458H47.8266Z" stroke="#C5A56F" stroke-width="2" stroke-miterlimit="10" stroke-linecap="round" stroke-linejoin="round"/>
<path d="M70.0778 68.4458H9.92246C7.28325 68.4458 5.14355 70.5853 5.14355 73.2245V76.1723C5.14355 77.6391 6.33262 78.8281 7.79949 78.8281H72.2007C73.6676 78.8281 74.8565 77.6391 74.8565 76.1723V73.2245C74.8565 70.5853 72.717 68.4458 70.0778 68.4458Z" stroke="#C5A56F" stroke-width="2" stroke-miterlimit="10" stroke-linecap="round" stroke-linejoin="round"/>
</g>
</svg>
