<svg width="80" height="60" viewBox="0 0 80 60" fill="none" xmlns="http://www.w3.org/2000/svg">
<path d="M79.265 19.4193C78.7992 19.8758 78.1676 20.1322 77.5092 20.1322C76.8508 20.1322 76.2193 19.8758 75.7534 19.4193C66.2607 10.1093 53.388 4.87937 39.9659 4.87937C26.5439 4.87937 13.6712 10.1093 4.17851 19.4193C3.7075 19.8499 3.08453 20.0843 2.44083 20.0732C1.79713 20.062 1.18297 19.8062 0.727741 19.3595C0.272508 18.9129 0.0117444 18.3103 0.000387101 17.6788C-0.0109702 17.0472 0.227966 16.436 0.666856 15.9739C11.092 5.74595 25.2312 0 39.9742 0C54.7173 0 68.8565 5.74595 79.2816 15.9739C79.7447 16.4331 80.0031 17.0539 80 17.6999C79.9969 18.3459 79.7325 18.9643 79.265 19.4193Z" fill="#C5A56F"/>
<path d="M68.9461 26.0825C69.385 26.5447 69.6239 27.1559 69.6126 27.7874C69.6012 28.419 69.3405 29.0215 68.8852 29.4682C68.43 29.9148 67.8158 30.1707 67.1721 30.1818C66.5285 30.193 65.9055 29.9585 65.4345 29.5279C62.0912 26.2415 58.1202 23.6342 53.7486 21.8553C49.3771 20.0763 44.691 19.1607 39.9584 19.1607C35.2258 19.1607 30.5396 20.0763 26.1681 21.8553C21.7966 23.6342 17.8256 26.2415 14.4823 29.5279C14.008 29.9284 13.397 30.1385 12.7716 30.1163C12.1462 30.0941 11.5524 29.8411 11.1089 29.408C10.6653 28.9748 10.4047 28.3934 10.379 27.7799C10.3534 27.1665 10.5647 26.5661 10.9707 26.0988C14.7753 22.3603 19.2939 19.3944 24.2679 17.3708C29.2419 15.3472 34.5737 14.3057 39.9584 14.3057C45.3431 14.3057 50.6749 15.3472 55.6489 17.3708C60.6229 19.3944 65.1415 22.3603 68.9461 26.0988V26.0825Z" fill="#C5A56F"/>
<path d="M58.6592 36.1912C59.0981 36.6533 59.337 37.2645 59.3257 37.8961C59.3143 38.5276 59.0535 39.1302 58.5983 39.5768C58.1431 40.0235 57.5289 40.2793 56.8852 40.2904C56.2415 40.3016 55.6185 40.0672 55.1475 39.6366C51.1129 35.7016 45.6552 33.4929 39.9663 33.4929C34.2773 33.4929 28.8196 35.7016 24.785 39.6366C24.314 40.0672 23.691 40.3016 23.0473 40.2904C22.4036 40.2793 21.7894 40.0235 21.3342 39.5768C20.879 39.1302 20.6182 38.5276 20.6068 37.8961C20.5955 37.2645 20.8344 36.6533 21.2733 36.1912C23.7274 33.7785 26.6423 31.8643 29.8513 30.5583C33.0603 29.2522 36.5004 28.58 39.9745 28.58C43.4487 28.58 46.8887 29.2522 50.0977 30.5583C53.3067 31.8643 56.2217 33.7785 58.6758 36.1912H58.6592Z" fill="#C5A56F"/>
<path d="M39.958 42.8706C38.2314 42.8706 36.5437 43.3729 35.1081 44.314C33.6726 45.2551 32.5537 46.5927 31.893 48.1577C31.2323 49.7227 31.0594 51.4448 31.3963 53.1062C31.7331 54.7676 32.5645 56.2937 33.7853 57.4915C35.0062 58.6893 36.5616 59.505 38.2549 59.8354C39.9483 60.1659 41.7035 59.9963 43.2986 59.3481C44.8937 58.6998 46.257 57.6021 47.2162 56.1936C48.1754 54.7851 48.6874 53.1292 48.6874 51.4353C48.6874 49.1638 47.7677 46.9853 46.1306 45.3791C44.4935 43.773 42.2732 42.8706 39.958 42.8706ZM39.958 55.1245C39.2143 55.1245 38.4873 54.9081 37.869 54.5027C37.2506 54.0974 36.7687 53.5212 36.4841 52.8471C36.1995 52.173 36.125 51.4312 36.2701 50.7156C36.4152 50 36.7733 49.3426 37.2992 48.8267C37.825 48.3107 38.495 47.9594 39.2244 47.817C39.9538 47.6747 40.7098 47.7477 41.3969 48.027C42.084 48.3062 42.6712 48.779 43.0844 49.3857C43.4976 49.9924 43.7181 50.7057 43.7181 51.4353C43.7181 52.4137 43.3219 53.3521 42.6168 54.0439C41.9116 54.7358 40.9552 55.1245 39.958 55.1245Z" fill="#C5A56F"/>
</svg>
