<svg width="120" height="120" viewBox="0 0 120 120" fill="none" xmlns="http://www.w3.org/2000/svg">
<path d="M82.6332 101.483L72.3509 104.005C70.5894 104.437 68.7842 103.49 68.1326 101.795L63.8281 92.9806L78.6289 89.3501L84.3039 96.7093C85.6336 98.4372 84.7487 100.964 82.6332 101.483Z" stroke="#C5A56F" stroke-width="2" stroke-miterlimit="10" stroke-linecap="round" stroke-linejoin="round"/>
<path d="M23.0322 117.89L10.8976 111.783C9.28555 110.952 8.5458 109.053 9.16833 107.347L14.4366 99.1274L27.9817 106.111L27.4275 115.388C27.2949 117.564 24.9686 118.888 23.0322 117.89Z" stroke="#C5A56F" stroke-width="2" stroke-miterlimit="10" stroke-linecap="round" stroke-linejoin="round"/>
<path d="M114.119 73.0542L104.275 78.3291C102.956 79.0356 102.014 80.2846 101.696 81.7462L101.598 82.199C101.146 84.2758 99.6027 85.9436 97.5668 86.5543L90.9266 88.5465C88.8976 89.1553 87.4547 90.9534 87.3001 93.0661L87.0683 96.2342C86.8834 98.76 85.0924 100.879 82.6328 101.483L74.0082 103.598C73.1198 103.816 72.3061 104.269 71.6523 104.909L58.0439 118.228" stroke="#C5A56F" stroke-width="2" stroke-miterlimit="10" stroke-linecap="round" stroke-linejoin="round"/>
<path d="M20.1853 69.3424L18.3894 63.3076C17.4653 60.202 17.7337 56.8635 19.1423 53.9458L36.9293 61.4754L40.7039 77.975C41.3366 80.7402 40.9024 83.6423 39.4884 86.1012L27.9816 106.111L14.4365 99.1272L22.7605 84.5647C23.5813 83.1285 23.7789 81.419 23.3072 79.8334L22.5303 77.2232" stroke="#C5A56F" stroke-width="2" stroke-miterlimit="10" stroke-linecap="round" stroke-linejoin="round"/>
<path d="M36.9297 61.4751L59.141 66.1218C62.0683 66.7342 64.6397 68.4685 66.3043 70.9532L78.6291 89.3498L63.8283 92.9803L56.6241 81.0951C55.6547 79.4958 54.0783 78.3575 52.2549 77.9409L40.0596 75.153" stroke="#C5A56F" stroke-width="2" stroke-miterlimit="10" stroke-linecap="round" stroke-linejoin="round"/>
<path d="M19.1428 53.946L34.4481 22.312L50.276 29.9679C53.9377 31.739 55.4701 36.143 53.699 39.8045L53.2239 40.7865" stroke="#C5A56F" stroke-width="2" stroke-miterlimit="10" stroke-linecap="round" stroke-linejoin="round"/>
<path d="M46.4925 54.7031L42.6389 62.6695" stroke="#C5A56F" stroke-width="2" stroke-miterlimit="10" stroke-linecap="round" stroke-linejoin="round"/>
<path d="M15.1745 16.7722C19.1883 12.3517 25.7778 10.8956 31.4261 13.6275C34.6588 15.1911 36.0117 19.0792 34.4483 22.3116L22.373 47.2763C20.8094 50.509 16.9213 51.8618 13.6889 50.2984C6.81624 46.9743 3.93971 38.7082 7.26411 31.8356L10.9442 24.2272" stroke="#C5A56F" stroke-width="2" stroke-miterlimit="10" stroke-linecap="round" stroke-linejoin="round"/>
<path d="M73.1578 37.2466C71.5606 34.2257 67.8169 33.0714 64.7957 34.6686L52.5952 41.1188C51.8349 41.5209 50.8924 41.2304 50.4904 40.4698L44.0401 28.2694C42.4429 25.2484 38.6992 24.0941 35.678 25.6913C32.6571 27.2885 31.5028 31.0322 33.1 34.0534L40.2782 47.6308L41.7752 50.4622C44.1429 54.9404 49.6925 56.6515 54.1709 54.2838L70.5797 45.6086C73.6007 44.0114 74.755 40.2675 73.1578 37.2466Z" stroke="#C5A56F" stroke-width="2" stroke-miterlimit="10" stroke-linecap="round" stroke-linejoin="round"/>
<path d="M70.5796 45.6089L90.9268 88.5465" stroke="#C5A56F" stroke-width="2" stroke-miterlimit="10" stroke-linecap="round" stroke-linejoin="round"/>
<path d="M49.4474 38.4971L38.6482 44.5479" stroke="#C5A56F" stroke-width="2" stroke-miterlimit="10" stroke-linecap="round" stroke-linejoin="round"/>
<path d="M48.8853 20.9519C44.4597 18.8114 42.6075 13.4887 44.7481 9.06319L46.1765 6.10985C48.0231 2.29221 52.615 0.694295 56.4329 2.54084L58.6335 3.60533C62.4511 5.45188 64.049 10.0438 62.2025 13.8617L60.774 16.815C58.6335 21.2403 53.3108 23.0925 48.8853 20.9519Z" stroke="#C5A56F" stroke-width="2" stroke-miterlimit="10" stroke-linecap="round" stroke-linejoin="round"/>
</svg>
