<svg width="214" height="47" viewBox="0 0 214 47" fill="none" xmlns="http://www.w3.org/2000/svg">
<path d="M5.93932 1.83072H12.7089C15.6892 1.83072 18.2011 2.27777 20.2448 3.17186C22.331 4.06595 23.9063 5.32193 24.9707 6.93981C26.0351 8.51511 26.5673 10.3672 26.5673 12.4959C26.5673 14.2841 26.2267 15.8594 25.5454 17.2219C24.8642 18.5417 23.9914 19.6274 22.927 20.4789C21.8626 21.2878 20.7344 21.8626 19.5423 22.2032C21.7988 22.5438 23.736 23.2889 25.3538 24.4384C27.0143 25.588 28.2703 27.0356 29.1218 28.7812C30.0159 30.4842 30.4629 32.4001 30.4629 34.5289C30.4629 36.9131 29.8882 39.0206 28.7386 40.8514C27.5891 42.6396 25.886 44.0446 23.6295 45.0664C21.4156 46.0456 18.7333 46.5352 15.5827 46.5352H8.49386C8.49386 46.5352 8.49386 46.3437 8.49386 45.9605C8.53644 45.5773 8.55772 45.1941 8.55772 44.8109C8.55772 44.4277 8.55772 44.2362 8.55772 44.2362H15.3273C17.5412 44.2362 19.4145 43.853 20.9473 43.0866C22.48 42.2777 23.6508 41.1068 24.4598 39.5741C25.2687 38.0414 25.6732 36.2106 25.6732 34.0818C25.6732 31.6976 25.2048 29.7604 24.2682 28.2703C23.3741 26.7801 22.2032 25.6518 20.7557 24.8855C19.3081 24.1191 17.7328 23.6082 16.0298 23.3528C14.3693 23.0547 12.7727 22.9057 11.24 22.9057V22.3309C12.2192 22.3309 13.3049 22.2245 14.497 22.0116C15.6892 21.7987 16.8387 21.373 17.9457 20.7343C19.0526 20.0957 19.968 19.159 20.6918 17.9244C21.4156 16.6471 21.7775 14.9866 21.7775 12.943C21.7775 11.0271 21.4156 9.38791 20.6918 8.02549C20.0106 6.66306 18.9675 5.64125 17.5625 4.96004C16.2001 4.23625 14.497 3.87436 12.4534 3.87436H6.57795C6.57795 3.83178 6.51409 3.66148 6.38636 3.36344C6.30121 3.02284 6.19477 2.68224 6.06704 2.34163C5.98189 2.00102 5.93932 1.83072 5.93932 1.83072ZM9.06863 1.83072V46.5352H4.9175V1.83072H9.06863ZM5.10909 41.8732V46.5352H0L0.0638636 45.8966C0.149015 45.8966 0.276742 45.8966 0.447045 45.8966C0.659924 45.8966 0.787651 45.8966 0.830227 45.8966C1.9372 45.8966 2.89515 45.5134 3.70409 44.7471C4.51303 43.9381 4.9175 42.9802 4.9175 41.8732H5.10909ZM5.10909 6.49276H4.9175C4.9175 5.38579 4.51303 4.44913 3.70409 3.68277C2.89515 2.87383 1.9372 2.46935 0.830227 2.46935C0.787651 2.46935 0.659924 2.46935 0.447045 2.46935C0.276742 2.46935 0.149015 2.46935 0.0638636 2.46935L0 1.83072H5.10909V6.49276Z" fill="#C5A56F"/>
<path d="M45.0348 1.83072H54.0396C55.9555 1.83072 57.6798 2.10746 59.2125 2.66095C60.7878 3.21443 62.1077 4.02337 63.1721 5.08776C64.2365 6.10958 65.0454 7.36557 65.5989 8.85572C66.195 10.3033 66.493 11.9637 66.493 13.8371C66.493 15.8807 66.0034 17.8392 65.0241 19.7125C64.0875 21.5859 62.7889 23.1186 61.1284 24.3107C59.5106 25.4603 57.6798 26.035 55.6362 26.035C56.36 26.3331 57.1476 26.9504 57.9991 27.8871C58.8506 28.7812 59.5957 29.654 60.2344 30.5055C60.2344 30.5055 60.5111 30.9312 61.0646 31.7828C61.6606 32.5917 62.3844 33.5922 63.236 34.7843C64.13 35.9765 65.0241 37.1473 65.9182 38.2968C66.8123 39.4464 67.5787 40.3618 68.2173 41.043C69.0688 41.9796 69.9203 42.8099 70.7719 43.5337C71.6234 44.2574 72.5387 44.8322 73.518 45.258C74.5398 45.6837 75.6681 45.8966 76.9028 45.8966V46.5352H73.3903C71.4318 46.5352 69.7287 46.2372 68.2812 45.6412C66.8762 45.0451 65.6841 44.3213 64.7048 43.4698C63.7256 42.5757 62.8953 41.7242 62.2141 40.9152C62.0864 40.7449 61.7245 40.2553 61.1284 39.4464C60.575 38.6374 59.8937 37.6795 59.0848 36.5725C58.3184 35.423 57.5521 34.2947 56.7857 33.1878C56.0194 32.0808 55.3594 31.1441 54.806 30.3778C54.2525 29.5688 53.9331 29.1005 53.848 28.9728C53.0391 27.9084 52.145 26.9291 51.1657 26.035C50.1865 25.1409 49.1221 24.6939 47.9725 24.6939V24.0553C47.9725 24.0553 48.2919 24.0765 48.9305 24.1191C49.6117 24.1191 50.4206 24.0978 51.3573 24.0553C52.4643 24.0127 53.6777 23.8424 54.9975 23.5443C56.3174 23.2463 57.5521 22.629 58.7016 21.6923C59.8512 20.7556 60.724 19.3293 61.32 17.4134C61.4478 16.9451 61.5542 16.3703 61.6394 15.6891C61.7245 14.9653 61.7458 14.2628 61.7032 13.5816C61.6606 10.6865 60.9156 8.38738 59.468 6.68435C58.063 4.93875 56.1684 4.00208 53.7841 3.87436C52.592 3.7892 51.3573 3.76792 50.08 3.81049C48.8453 3.81049 47.8022 3.81049 46.9507 3.81049C46.0992 3.81049 45.6735 3.81049 45.6735 3.81049C45.6735 3.76792 45.6096 3.59761 45.4819 3.29958C45.3967 2.95898 45.2903 2.63966 45.1625 2.34163C45.0774 2.00102 45.0348 1.83072 45.0348 1.83072ZM45.865 1.83072V46.5352H41.7139V1.83072H45.865ZM41.9055 41.8732V46.5352H36.7964V45.8966C36.7964 45.8966 36.9241 45.8966 37.1796 45.8966C37.4776 45.8966 37.6266 45.8966 37.6266 45.8966C38.7336 45.8966 39.6703 45.5134 40.4366 44.7471C41.2456 43.9381 41.6713 42.9802 41.7139 41.8732H41.9055ZM41.9055 6.49276H41.7139C41.6713 5.38579 41.2456 4.44913 40.4366 3.68277C39.6703 2.87383 38.7336 2.46935 37.6266 2.46935C37.6266 2.46935 37.4776 2.46935 37.1796 2.46935C36.9241 2.46935 36.7964 2.46935 36.7964 2.46935V1.83072H41.9055V6.49276ZM45.6735 41.8732H45.865C45.865 42.9802 46.2695 43.9381 47.0785 44.7471C47.8874 45.5134 48.8453 45.8966 49.9523 45.8966C49.9523 45.8966 50.08 45.8966 50.3355 45.8966C50.591 45.8966 50.7187 45.8966 50.7187 45.8966V46.5352H45.6735V41.8732Z" fill="#C5A56F"/>
<path d="M164.484 0.936659C164.484 0.936659 164.484 1.0431 164.484 1.25598C164.484 1.42628 164.484 1.51143 164.484 1.51143L136.001 46.5353H131.275V45.9605L158.098 3.6828H132.169V1.76689H157.715C158.566 1.76689 159.46 1.72431 160.397 1.63916C161.376 1.55401 162.228 1.44757 162.952 1.31984C163.718 1.19211 164.229 1.06439 164.484 0.936659ZM164.931 44.6194L164.548 46.5353H135.362V44.6194H164.931ZM166.847 36.7003L164.74 46.5353H156.31L156.757 44.9387L157.459 44.6194C159.843 44.6194 161.738 43.853 163.143 42.3203C164.591 40.7876 165.612 38.9142 166.209 36.7003H166.847ZM136.576 3.6828C135.511 3.72537 134.617 4.10855 133.894 4.83234C133.17 5.55613 132.808 6.45022 132.808 7.51461V8.66416H132.169V3.4912H136.576V3.6828ZM132.169 0.61734C132.595 0.787643 133.234 0.957948 134.085 1.12825C134.979 1.29855 135.958 1.44757 137.023 1.57529C138.087 1.70302 139.067 1.76689 139.961 1.76689L132.169 2.46938V0.61734Z" fill="#C5A56F"/>
<path d="M181.942 1.83075V46.5353H177.791V1.83075H181.942ZM177.983 41.8732V46.5353H172.874V45.8966C172.874 45.8966 173.002 45.8966 173.257 45.8966C173.555 45.8966 173.704 45.8966 173.704 45.8966C174.811 45.8966 175.748 45.5135 176.514 44.7471C177.323 43.9382 177.749 42.9802 177.791 41.8732H177.983ZM177.983 6.49279H177.791C177.749 5.38582 177.323 4.44916 176.514 3.6828C175.748 2.87385 174.811 2.46938 173.704 2.46938C173.704 2.46938 173.555 2.46938 173.257 2.46938C173.002 2.46938 172.874 2.46938 172.874 2.46938V1.83075H177.983V6.49279ZM181.751 41.8732H181.942C181.985 42.9802 182.389 43.9382 183.156 44.7471C183.965 45.5135 184.923 45.8966 186.03 45.8966C186.03 45.8966 186.157 45.8966 186.413 45.8966C186.668 45.8966 186.817 45.8966 186.86 45.8966V46.5353H181.751V41.8732ZM181.751 6.49279V1.83075H186.86V2.46938C186.817 2.46938 186.668 2.46938 186.413 2.46938C186.157 2.46938 186.03 2.46938 186.03 2.46938C184.923 2.46938 183.965 2.87385 183.156 3.6828C182.389 4.44916 181.985 5.38582 181.942 6.49279H181.751Z" fill="#C5A56F"/>
<path d="M86.372 0.766364V30.5694H83.6046V0.766364H86.372ZM97.8675 29.2495V30.5694H86.2443V29.2495H97.8675ZM96.0367 15.2421V16.5194H86.2443V15.2421H96.0367ZM97.8675 0.766364V2.08621H86.2443V0.766364H97.8675ZM100.465 23.6721L97.9952 30.5694H90.9277L92.4604 29.2495C93.9647 29.2495 95.1852 29.0225 96.1219 28.5683C97.0869 28.0858 97.8675 27.4188 98.4636 26.5673C99.0596 25.7157 99.5847 24.7507 100.039 23.6721H100.465ZM96.0367 16.4342V19.2442H95.611V18.6056C95.611 18.0379 95.4123 17.5554 95.0149 17.158C94.6176 16.7323 94.135 16.5194 93.5673 16.5194V16.4342H96.0367ZM96.0367 12.5173V15.3273H93.5673V15.2421C94.135 15.2137 94.6176 15.0009 95.0149 14.6035C95.4123 14.1777 95.611 13.681 95.611 13.1133V12.5173H96.0367ZM97.8675 1.95848V5.36454H97.4417V4.59818C97.4417 3.91697 97.2005 3.3351 96.718 2.85258C96.2354 2.34167 95.6394 2.07202 94.9298 2.04364V1.95848H97.8675ZM97.8675 0V1.2347L92.6733 0.766364C93.2977 0.766364 93.9505 0.723788 94.6317 0.638638C95.3413 0.553486 95.9942 0.454142 96.5902 0.340607C97.1863 0.227071 97.612 0.113536 97.8675 0ZM83.7324 27.4613V30.5694H80.3263V30.1436C80.3263 30.1436 80.4114 30.1436 80.5817 30.1436C80.7804 30.1436 80.8798 30.1436 80.8798 30.1436C81.6178 30.1436 82.2422 29.8882 82.7531 29.3773C83.2924 28.838 83.5762 28.1993 83.6046 27.4613H83.7324ZM83.7324 3.87439H83.6046C83.6046 3.13641 83.335 2.51197 82.7957 2.00106C82.2564 1.46177 81.6178 1.19212 80.8798 1.19212C80.8798 1.19212 80.7946 1.19212 80.6243 1.19212C80.454 1.19212 80.3689 1.19212 80.3689 1.19212L80.3263 0.766364H83.7324V3.87439Z" fill="#C5A56F"/>
<path d="M110.529 0.766364V30.5694H107.761V0.766364H110.529ZM122.024 29.2495V30.5694H110.401V29.2495H122.024ZM120.193 15.2421V16.5194H110.401V15.2421H120.193ZM122.024 0.766364V2.08621H110.401V0.766364H122.024ZM124.621 23.6721L122.152 30.5694H115.084L116.617 29.2495C118.121 29.2495 119.342 29.0225 120.279 28.5683C121.244 28.0858 122.024 27.4188 122.62 26.5673C123.216 25.7157 123.741 24.7507 124.196 23.6721H124.621ZM120.193 16.4342V19.2442H119.768V18.6056C119.768 18.0379 119.569 17.5554 119.172 17.158C118.774 16.7323 118.292 16.5194 117.724 16.5194V16.4342H120.193ZM120.193 12.5173V15.3273H117.724V15.2421C118.292 15.2137 118.774 15.0009 119.172 14.6035C119.569 14.1777 119.768 13.681 119.768 13.1133V12.5173H120.193ZM122.024 1.95848V5.36454H121.598V4.59818C121.598 3.91697 121.357 3.3351 120.875 2.85258C120.392 2.34167 119.796 2.07202 119.087 2.04364V1.95848H122.024ZM122.024 0V1.2347L116.83 0.766364C117.454 0.766364 118.107 0.723788 118.788 0.638638C119.498 0.553486 120.151 0.454142 120.747 0.340607C121.343 0.227071 121.769 0.113536 122.024 0ZM107.889 27.4613V30.5694H104.483V30.1436C104.483 30.1436 104.568 30.1436 104.738 30.1436C104.937 30.1436 105.037 30.1436 105.037 30.1436C105.774 30.1436 106.399 29.8882 106.91 29.3773C107.449 28.838 107.733 28.1993 107.761 27.4613H107.889ZM107.889 3.87439H107.761C107.761 3.13641 107.492 2.51197 106.952 2.00106C106.413 1.46177 105.774 1.19212 105.037 1.19212C105.037 1.19212 104.951 1.19212 104.781 1.19212C104.611 1.19212 104.526 1.19212 104.526 1.19212L104.483 0.766364H107.889V3.87439Z" fill="#C5A56F"/>
<path d="M199.907 0.766364V30.5694H197.14V0.766364H199.907ZM211.403 29.2495V30.5694H199.78V29.2495H211.403ZM209.572 15.2421V16.5194H199.78V15.2421H209.572ZM211.403 0.766364V2.08621H199.78V0.766364H211.403ZM214 23.6721L211.531 30.5694H204.463L205.996 29.2495C207.5 29.2495 208.721 29.0225 209.657 28.5683C210.622 28.0858 211.403 27.4188 211.999 26.5673C212.595 25.7157 213.12 24.7507 213.574 23.6721H214ZM209.572 16.4342V19.2442H209.146V18.6056C209.146 18.0379 208.948 17.5554 208.55 17.158C208.153 16.7323 207.67 16.5194 207.103 16.5194V16.4342H209.572ZM209.572 12.5173V15.3273H207.103V15.2421C207.67 15.2137 208.153 15.0009 208.55 14.6035C208.948 14.1777 209.146 13.681 209.146 13.1133V12.5173H209.572ZM211.403 1.95848V5.36454H210.977V4.59818C210.977 3.91697 210.736 3.3351 210.253 2.85258C209.771 2.34167 209.175 2.07202 208.465 2.04364V1.95848H211.403ZM211.403 0V1.2347L206.209 0.766364C206.833 0.766364 207.486 0.723788 208.167 0.638638C208.877 0.553486 209.53 0.454142 210.126 0.340607C210.722 0.227071 211.147 0.113536 211.403 0ZM197.268 27.4613V30.5694H193.862V30.1436C193.862 30.1436 193.947 30.1436 194.117 30.1436C194.316 30.1436 194.415 30.1436 194.415 30.1436C195.153 30.1436 195.778 29.8882 196.289 29.3773C196.828 28.838 197.112 28.1993 197.14 27.4613H197.268ZM197.268 3.87439H197.14C197.14 3.13641 196.87 2.51197 196.331 2.00106C195.792 1.46177 195.153 1.19212 194.415 1.19212C194.415 1.19212 194.33 1.19212 194.16 1.19212C193.989 1.19212 193.904 1.19212 193.904 1.19212L193.862 0.766364H197.268V3.87439Z" fill="#C5A56F"/>
<g clip-path="url(#clip0_1_43)">
<path d="M86.7526 42.9873L89.5244 43.6525L90.1897 46.4244L90.8549 43.6525L93.6268 42.9873L90.8549 42.322L90.1897 39.5502L89.5244 42.322L86.7526 42.9873Z" fill="#C5A56F"/>
</g>
<g clip-path="url(#clip1_1_43)">
<path d="M200.288 42.9873L203.06 43.6525L203.725 46.4244L204.39 43.6525L207.162 42.9873L204.39 42.322L203.725 39.5502L203.06 42.322L200.288 42.9873Z" fill="#C5A56F"/>
</g>
<g clip-path="url(#clip2_1_43)">
<path d="M111.588 42.9873L114.36 43.6525L115.025 46.4244L115.691 43.6525L118.462 42.9873L115.691 42.322L115.025 39.5502L114.36 42.322L111.588 42.9873Z" fill="#C5A56F"/>
</g>
<defs>
<clipPath id="clip0_1_43">
<rect width="7.09596" height="7.09596" fill="white" transform="translate(86.6417 39.4393)"/>
</clipPath>
<clipPath id="clip1_1_43">
<rect width="7.09596" height="7.09596" fill="white" transform="translate(200.177 39.4393)"/>
</clipPath>
<clipPath id="clip2_1_43">
<rect width="7.09596" height="7.09596" fill="white" transform="translate(111.477 39.4393)"/>
</clipPath>
</defs>
</svg>
