<svg width="80" height="80" viewBox="0 0 80 80" fill="none" xmlns="http://www.w3.org/2000/svg">
<path d="M43.2846 30.9917H39.339C37.2414 30.9917 35.277 29.9634 34.0817 28.2397L33.307 27.1226C32.1873 25.5079 29.7998 25.5079 28.6801 27.1226L27.9054 28.2397C26.7101 29.9634 24.7457 30.9917 22.6481 30.9917H15.6823C12.3237 30.9917 9.52479 33.4956 9.05151 36.7283" stroke="#C5A56F" stroke-width="2" stroke-miterlimit="10" stroke-linecap="round" stroke-linejoin="round"/>
<path d="M44.0625 36.7285H20.9375" stroke="#C5A56F" stroke-width="2" stroke-miterlimit="10" stroke-linecap="round" stroke-linejoin="round"/>
<path d="M15.4688 36.7285H5.93677C5.0738 36.7285 4.37427 37.428 4.37427 38.291V46.7105" stroke="#C5A56F" stroke-width="2" stroke-miterlimit="10" stroke-linecap="round" stroke-linejoin="round"/>
<path d="M3.37354 41.7231H45.0001" stroke="#C5A56F" stroke-width="2" stroke-miterlimit="10" stroke-linecap="round" stroke-linejoin="round"/>
<path d="M46.3481 46.7104H3.51562C2.22125 46.7104 1.17188 47.7598 1.17188 49.0542V72.5147C1.17188 73.809 2.22125 74.8584 3.51562 74.8584H50.6537" stroke="#C5A56F" stroke-width="2" stroke-miterlimit="10" stroke-linecap="round" stroke-linejoin="round"/>
<path d="M27.7186 54.8208H1.17188V66.7478H27.7186V54.8208Z" stroke="#C5A56F" stroke-width="2" stroke-miterlimit="10" stroke-linecap="round" stroke-linejoin="round"/>
<path d="M37.8178 66.7478H1.17188V54.8208H37.8178C38.2492 54.8208 38.5991 55.1706 38.5991 55.6021V65.9666C38.5991 66.398 38.2492 66.7478 37.8178 66.7478Z" stroke="#C5A56F" stroke-width="2" stroke-miterlimit="10" stroke-linecap="round" stroke-linejoin="round"/>
<path d="M60.3126 74.8586H68.1202C68.9832 74.8586 69.6827 74.159 69.6827 73.2961V60.7847H49.0913V73.2961C49.0913 74.159 49.7908 74.8586 50.6538 74.8586H54.8438" stroke="#C5A56F" stroke-width="2" stroke-miterlimit="10" stroke-linecap="round" stroke-linejoin="round"/>
<path d="M49.0913 60.7843H69.6827L78.8281 13.8623H39.9458L49.0913 60.7843Z" stroke="#C5A56F" stroke-width="2" stroke-miterlimit="10" stroke-linecap="round" stroke-linejoin="round"/>
<path d="M65.4698 23.7031V42.2855C65.4698 43.1484 64.7703 43.848 63.9073 43.848H54.8667C54.0037 43.848 53.3042 43.1484 53.3042 42.2855V23.7031C53.3042 22.8402 54.0037 22.1406 54.8667 22.1406H63.9073C64.7701 22.1406 65.4698 22.8402 65.4698 23.7031Z" stroke="#C5A56F" stroke-width="2" stroke-miterlimit="10" stroke-linecap="round" stroke-linejoin="round"/>
<path d="M53.3042 42.2852C53.3042 43.1481 54.0037 43.8477 54.8667 43.8477H63.9073C64.7703 43.8477 65.4698 43.1481 65.4698 42.2852V35.3125H53.3042V42.2852Z" stroke="#C5A56F" stroke-width="2" stroke-miterlimit="10" stroke-linecap="round" stroke-linejoin="round"/>
<path d="M54.9739 50.2886H63.8" stroke="#C5A56F" stroke-width="2" stroke-miterlimit="10" stroke-linecap="round" stroke-linejoin="round"/>
<path d="M48.2813 5.14209H41.5083C40.6453 5.14209 39.9458 5.84162 39.9458 6.70459V13.8621H78.8281V6.70459C78.8281 5.84162 78.1286 5.14209 77.2656 5.14209H53.75" stroke="#C5A56F" stroke-width="2" stroke-miterlimit="10" stroke-linecap="round" stroke-linejoin="round"/>
</svg>
