<svg width="36" height="36" viewBox="0 0 36 36" fill="none" xmlns="http://www.w3.org/2000/svg">
<path d="M26.7202 19.5H17.25V16.875C17.2538 15.6007 16.9464 14.3448 16.3546 13.2164C15.7627 12.0879 14.9044 11.1209 13.854 10.3995C13.9725 10.3371 14.072 10.2438 14.1417 10.1294C14.2114 10.0151 14.2489 9.88394 14.25 9.75V3.75C14.25 3.15326 14.0129 2.58097 13.591 2.15901C13.169 1.73705 12.5967 1.5 12 1.5H6.75C6.15326 1.5 5.58097 1.73705 5.15901 2.15901C4.73705 2.58097 4.5 3.15326 4.5 3.75V9.75C4.50119 9.88488 4.5391 10.0169 4.60967 10.1319C4.68023 10.2468 4.78077 10.3404 4.9005 10.4025C3.85221 11.1256 2.9951 12.0924 2.4028 13.2198C1.81049 14.3472 1.50069 15.6015 1.5 16.875V32.25C1.5 32.8467 1.73705 33.419 2.15901 33.841C2.58097 34.2629 3.15326 34.5 3.75 34.5H28.5C30.0907 34.4982 31.6158 33.8655 32.7407 32.7407C33.8655 31.6158 34.4982 30.0907 34.5 28.5V27.2798C34.4978 25.2171 33.6775 23.2396 32.219 21.781C30.7604 20.3225 28.7829 19.5022 26.7202 19.5ZM6.75 3H12C12.1989 3 12.3897 3.07902 12.5303 3.21967C12.671 3.36032 12.75 3.55109 12.75 3.75V4.5H6V3.75C6 3.55109 6.07902 3.36032 6.21967 3.21967C6.36032 3.07902 6.55109 3 6.75 3ZM6 9V6H12.75V9H6ZM3.75 33C3.55109 33 3.36032 32.921 3.21967 32.7803C3.07902 32.6397 3 32.4489 3 32.25V16.875C3 15.1842 3.67165 13.5627 4.86719 12.3672C6.06274 11.1716 7.68425 10.5 9.375 10.5C11.0658 10.5 12.6873 11.1716 13.8828 12.3672C15.0784 13.5627 15.75 15.1842 15.75 16.875V19.5C15.3593 19.5002 14.9753 19.602 14.6359 19.7957C14.2966 19.9893 14.0134 20.2679 13.8145 20.6042C13.6155 20.9405 13.5075 21.3228 13.5012 21.7134C13.4948 22.1041 13.5903 22.4897 13.7782 22.8323C12.7874 23.1758 11.9041 23.7735 11.2167 24.5655C10.5292 25.3575 10.0618 26.3161 9.86093 27.3454C9.66011 28.3747 9.733 29.4387 10.0723 30.431C10.4116 31.4233 11.0055 32.3092 11.7945 33H3.75ZM33 28.5C32.9988 29.6931 32.5243 30.837 31.6807 31.6807C30.837 32.5243 29.6931 32.9988 28.5 33C28.5 33 15.4613 32.9918 15.3202 32.9783C15.301 32.9715 15.2804 32.9694 15.2603 32.9723C14.1179 32.8448 13.0676 32.2851 12.3249 31.4079C11.5821 30.5306 11.2032 29.4025 11.2658 28.2547C11.3285 27.107 11.828 26.0268 12.6618 25.2356C13.4956 24.4444 14.6006 24.0023 15.75 24H26.625C27.3212 24 27.9889 24.2766 28.4812 24.7688C28.9734 25.2611 29.25 25.9288 29.25 26.625C29.25 27.3212 28.9734 27.9889 28.4812 28.4812C27.9889 28.9734 27.3212 29.25 26.625 29.25H17.625C17.3266 29.25 17.0405 29.1315 16.8295 28.9205C16.6185 28.7095 16.5 28.4234 16.5 28.125C16.5 27.8266 16.6185 27.5405 16.8295 27.3295C17.0405 27.1185 17.3266 27 17.625 27H26.25C26.4489 27 26.6397 26.921 26.7803 26.7803C26.921 26.6397 27 26.4489 27 26.25C27 26.0511 26.921 25.8603 26.7803 25.7197C26.6397 25.579 26.4489 25.5 26.25 25.5H17.625C16.9288 25.5 16.2611 25.7766 15.7688 26.2688C15.2766 26.7611 15 27.4288 15 28.125C15 28.8212 15.2766 29.4889 15.7688 29.9812C16.2611 30.4734 16.9288 30.75 17.625 30.75H26.625C27.719 30.75 28.7682 30.3154 29.5418 29.5418C30.3154 28.7682 30.75 27.719 30.75 26.625C30.75 25.531 30.3154 24.4818 29.5418 23.7082C28.7682 22.9346 27.719 22.5 26.625 22.5H15.75C15.5511 22.5 15.3603 22.421 15.2197 22.2803C15.079 22.1397 15 21.9489 15 21.75C15 21.5511 15.079 21.3603 15.2197 21.2197C15.3603 21.079 15.5511 21 15.75 21H26.7202C28.3852 21.0018 29.9814 21.664 31.1587 22.8413C32.336 24.0186 32.9982 25.6148 33 27.2798V28.5Z" fill="#C5A56F"/>
</svg>
