<svg width="80" height="80" viewBox="0 0 80 80" fill="none" xmlns="http://www.w3.org/2000/svg">
<mask id="mask0_39_5351" style="mask-type:luminance" maskUnits="userSpaceOnUse" x="0" y="0" width="80" height="80">
<path d="M0 7.62939e-06H80V80H0V7.62939e-06Z" fill="white"/>
</mask>
<g mask="url(#mask0_39_5351)">
<path d="M73.908 31.639L69.6377 33.4077" stroke="#C5A56F" stroke-width="2" stroke-miterlimit="10" stroke-linecap="round" stroke-linejoin="round"/>
<path d="M47.0312 48.7656H78.4375" stroke="#C5A56F" stroke-width="2" stroke-miterlimit="10" stroke-linecap="round" stroke-linejoin="round"/>
<path d="M1.5625 48.7656H32.9688" stroke="#C5A56F" stroke-width="2" stroke-miterlimit="10" stroke-linecap="round" stroke-linejoin="round"/>
<path d="M40 4.64406V19.3984" stroke="#C5A56F" stroke-width="2" stroke-miterlimit="10" stroke-linecap="round" stroke-linejoin="round"/>
</g>
<path d="M54.0451 14.8576L52.2764 19.1279" stroke="#C5A56F" stroke-width="2" stroke-miterlimit="10" stroke-linecap="round" stroke-linejoin="round"/>
<path d="M71.3477 17.418L60.7656 28" stroke="#C5A56F" stroke-width="2" stroke-miterlimit="10" stroke-linecap="round" stroke-linejoin="round"/>
<path d="M25.9551 14.8576L27.7238 19.1279" stroke="#C5A56F" stroke-width="2" stroke-miterlimit="10" stroke-linecap="round" stroke-linejoin="round"/>
<mask id="mask1_39_5351" style="mask-type:luminance" maskUnits="userSpaceOnUse" x="0" y="0" width="80" height="80">
<path d="M0 7.62939e-06H80V80H0V7.62939e-06Z" fill="white"/>
</mask>
<g mask="url(#mask1_39_5351)">
<path d="M6.09229 34.7205L10.3626 36.4893" stroke="#C5A56F" stroke-width="2" stroke-miterlimit="10" stroke-linecap="round" stroke-linejoin="round"/>
</g>
<path d="M8.65234 17.418L19.2344 28" stroke="#C5A56F" stroke-width="2" stroke-miterlimit="10" stroke-linecap="round" stroke-linejoin="round"/>
<mask id="mask2_39_5351" style="mask-type:luminance" maskUnits="userSpaceOnUse" x="0" y="0" width="80" height="80">
<path d="M0 7.62939e-06H80V80H0V7.62939e-06Z" fill="white"/>
</mask>
<g mask="url(#mask2_39_5351)">
<path d="M62.5 48.7651C62.5 36.3387 52.4264 26.2651 40 26.2651C27.5736 26.2651 17.5 36.3387 17.5 48.7651" stroke="#C5A56F" stroke-width="2" stroke-miterlimit="10" stroke-linecap="round" stroke-linejoin="round"/>
<path d="M67.4552 59.8129C64.4226 62.8456 59.5057 62.8456 56.473 59.8129C53.4404 56.7803 48.5235 56.7803 45.491 59.8129C42.4583 62.8456 37.5415 62.8456 34.5088 59.8129C31.4762 56.7803 26.5593 56.7803 23.5266 59.8129C20.494 62.8456 15.5771 62.8456 12.5444 59.8129" stroke="#C5A56F" stroke-width="2" stroke-miterlimit="10" stroke-linecap="round" stroke-linejoin="round"/>
<path d="M23.5269 73.0815C26.5595 76.1141 31.4764 76.1141 34.509 73.0815C37.5417 70.0488 42.4586 70.0488 45.4911 73.0815C48.5237 76.1141 53.4406 76.1141 56.4733 73.0815" stroke="#C5A56F" stroke-width="2" stroke-miterlimit="10" stroke-linecap="round" stroke-linejoin="round"/>
</g>
</svg>
