<svg width="80" height="80" viewBox="0 0 80 80" fill="none" xmlns="http://www.w3.org/2000/svg">
<g clip-path="url(#clip0_85_520)">
<mask id="mask0_85_520" style="mask-type:luminance" maskUnits="userSpaceOnUse" x="0" y="0" width="80" height="80">
<path d="M0 7.62939e-06H80V80H0V7.62939e-06Z" fill="white"/>
</mask>
<g mask="url(#mask0_85_520)">
<path d="M78.8281 40C78.8281 61.4442 61.4442 78.8281 40 78.8281C18.5558 78.8281 1.17188 61.4442 1.17188 40C1.17188 18.5558 18.5558 1.17188 40 1.17188C61.4442 1.17188 78.8281 18.5558 78.8281 40Z" stroke="#C5A56F" stroke-width="2" stroke-miterlimit="10" stroke-linecap="round" stroke-linejoin="round"/>
<path d="M36.4951 57.9498C37.7271 61.9424 41.9624 64.1804 45.9551 62.9484C49.9479 61.7163 52.1859 57.481 50.9539 53.4884C49.7218 49.4957 45.4865 47.2576 41.4939 48.4896C37.501 49.7217 35.2631 53.957 36.4951 57.9498Z" stroke="#C5A56F" stroke-width="2" stroke-miterlimit="10" stroke-linecap="round" stroke-linejoin="round"/>
<path d="M35.7266 6.98078V34.6603C35.7266 35.4666 36.3802 36.12 37.1863 36.12H65.5887C66.8983 36.12 67.5455 34.5291 66.6075 33.615L38.205 5.93546C37.2802 5.03406 35.7266 5.68937 35.7266 6.98078Z" stroke="#C5A56F" stroke-width="2" stroke-miterlimit="10" stroke-linecap="round" stroke-linejoin="round"/>
<path d="M44.6909 19.7121L40.4487 23.9541" stroke="#C5A56F" stroke-width="2" stroke-miterlimit="10" stroke-linecap="round" stroke-linejoin="round"/>
<path d="M48.5937 23.6146L44.3516 27.8568" stroke="#C5A56F" stroke-width="2" stroke-miterlimit="10" stroke-linecap="round" stroke-linejoin="round"/>
<path d="M52.4961 27.5173L48.2539 31.7595" stroke="#C5A56F" stroke-width="2" stroke-miterlimit="10" stroke-linecap="round" stroke-linejoin="round"/>
<path d="M15.6275 54.2475C18.1252 54.6934 20.4392 52.798 20.5903 50.2651C20.8317 46.2142 22.0353 40.6234 24.1002 34.6512C26.165 28.6791 28.6717 23.5389 30.9841 20.2039C32.4297 18.1189 31.7806 15.1987 29.5408 14.0067C29.3458 13.903 29.1433 13.8145 28.9334 13.7419C24.023 12.0441 16.9202 19.698 13.0688 30.8372C9.21735 41.9764 10.0758 52.3828 14.9861 54.0806C15.1961 54.1531 15.41 54.2087 15.6275 54.2475Z" stroke="#C5A56F" stroke-width="2" stroke-miterlimit="10" stroke-linecap="round" stroke-linejoin="round"/>
<path d="M19.0162 32.8934C18.6853 33.8505 19.1929 34.8947 20.15 35.2255L23.5196 36.3906C23.705 35.8152 23.8984 35.235 24.1003 34.6513C24.3021 34.0675 24.5082 33.4919 24.7179 32.9248L21.3482 31.7597C20.3912 31.4289 19.3471 31.9364 19.0162 32.8934Z" stroke="#C5A56F" stroke-width="2" stroke-miterlimit="10" stroke-linecap="round" stroke-linejoin="round"/>
<path d="M17.7052 41.5258C17.3742 42.4828 17.8817 43.527 18.8388 43.8578L21.3389 44.7222C21.5636 43.5728 21.835 42.3689 22.1522 41.1234L20.0371 40.392C19.08 40.0612 18.0361 40.5687 17.7052 41.5258Z" stroke="#C5A56F" stroke-width="2" stroke-miterlimit="10" stroke-linecap="round" stroke-linejoin="round"/>
<path d="M28.1495 25.0257L25.6495 24.1613C24.6925 23.8303 23.6483 24.3378 23.3175 25.2949C22.9865 26.2519 23.4942 27.296 24.4512 27.6267L26.5662 28.3582C27.0859 27.1827 27.6162 26.0685 28.1495 25.0257Z" stroke="#C5A56F" stroke-width="2" stroke-miterlimit="10" stroke-linecap="round" stroke-linejoin="round"/>
<path d="M30.7508 69.7546L30.7636 69.7507C33.37 68.9463 36.1585 69.0321 38.7349 69.9277C43.3041 71.516 48.6769 70.9829 53.3249 67.5193C56.0317 65.5023 55.947 64.4916 59.523 60.857C61.2735 59.0774 62.0972 56.5852 61.7517 54.1132C61.4724 52.113 60.461 50.3404 58.9802 49.0893C57.8036 48.0951 56.743 46.9738 55.7788 45.7724C51.942 40.992 45.4316 38.7713 39.2277 40.6855L32.1 42.8849C27.86 44.1932 25.4833 48.691 26.7916 52.9312C27.2492 54.4146 26.4178 55.9882 24.9344 56.4459C21.5575 57.4879 19.6646 61.0702 20.7066 64.4471C22.0146 68.6863 26.5116 71.0626 30.7508 69.7546Z" stroke="#C5A56F" stroke-width="2" stroke-miterlimit="10" stroke-linecap="round" stroke-linejoin="round"/>
<path d="M67.8905 40C67.8905 26.3285 58.0022 14.9236 45.0024 12.5596L66.6077 33.6149C67.5455 34.5288 66.8983 36.12 65.5889 36.12H37.1864C36.3802 36.12 35.7266 35.4664 35.7266 34.6603V12.4366C33.6263 12.761 31.6027 13.3208 29.6833 14.0875C31.8068 15.326 32.3985 18.1641 30.9841 20.2039C28.6718 23.5388 26.1652 28.6792 24.1002 34.6513C22.0354 40.6233 20.8318 46.2142 20.5903 50.2652C20.4482 52.6497 18.3885 54.4689 16.0635 54.3013C17.3832 56.5016 18.9974 58.506 20.8516 60.2594C21.5333 58.4944 22.986 57.0472 24.9343 56.446C26.4177 55.9881 27.2491 54.4147 26.7914 52.9313C25.483 48.6911 27.8597 44.1933 32.0997 42.885L39.2275 40.6858C45.4314 38.7714 51.9419 40.9919 55.7786 45.7724C56.7429 46.9739 57.8033 48.0952 58.98 49.0894C60.4608 50.3405 61.4722 52.113 61.7516 54.1131C61.9325 55.4078 61.7899 56.7071 61.3643 57.9074C65.4349 53.0589 67.8905 46.8113 67.8905 40Z" stroke="#C5A56F" stroke-width="2" stroke-miterlimit="10" stroke-linecap="round" stroke-linejoin="round"/>
</g>
</g>
<defs>
<clipPath id="clip0_85_520">
<rect width="80" height="80" fill="white"/>
</clipPath>
</defs>
</svg>
