<svg width="24" height="24" viewBox="0 0 24 24" fill="none" xmlns="http://www.w3.org/2000/svg">
<mask id="mask0_39_5598" style="mask-type:luminance" maskUnits="userSpaceOnUse" x="0" y="0" width="24" height="24">
<path d="M0 1.90735e-06H24V24H0V1.90735e-06Z" fill="white"/>
</mask>
<g mask="url(#mask0_39_5598)">
<path d="M12 23.2969C9.1875 19.0781 4.26562 13.3594 4.26562 8.4375C4.26562 4.17277 7.73527 0.703127 12 0.703127C16.2647 0.703127 19.7344 4.17277 19.7344 8.4375C19.7344 13.3594 14.8125 19.0781 12 23.2969Z" stroke="white" stroke-miterlimit="10" stroke-linecap="round" stroke-linejoin="round"/>
<path d="M12 11.9531C10.0616 11.9531 8.48438 10.3759 8.48438 8.4375C8.48438 6.49908 10.0616 4.92188 12 4.92188C13.9384 4.92188 15.5156 6.49908 15.5156 8.4375C15.5156 10.3759 13.9384 11.9531 12 11.9531Z" stroke="white" stroke-miterlimit="10" stroke-linecap="round" stroke-linejoin="round"/>
</g>
</svg>
