<svg width="64" height="64" viewBox="0 0 64 64" fill="none" xmlns="http://www.w3.org/2000/svg">
<path d="M12.5333 47.1995C9.86666 44.2662 8.26666 41.0662 8.26666 35.7329C8.26666 26.3995 14.9333 18.1329 24.2667 13.8662L26.6667 17.3329C17.8667 22.1329 16 28.2662 15.4667 32.2662C16.8 31.4662 18.6667 31.1995 20.5333 31.4662C25.3333 31.9995 29.0667 35.7329 29.0667 40.7995C29.0667 43.1995 28 45.5995 26.4 47.4662C24.5333 49.3329 22.4 50.1329 19.7333 50.1329C16.8 50.1329 14.1333 48.7995 12.5333 47.1995ZM39.2 47.1995C36.5333 44.2662 34.9333 41.0662 34.9333 35.7329C34.9333 26.3995 41.6 18.1329 50.9333 13.8662L53.3333 17.3329C44.5333 22.1329 42.6667 28.2662 42.1333 32.2662C43.4667 31.4662 45.3333 31.1995 47.2 31.4662C52 31.9995 55.7333 35.7329 55.7333 40.7995C55.7333 43.1995 54.6667 45.5995 53.0667 47.4662C51.4667 49.3329 49.0667 50.1329 46.4 50.1329C43.4667 50.1329 40.8 48.7995 39.2 47.1995Z" fill="#C5A56F"/>
</svg>
