<svg width="40" height="40" viewBox="0 0 40 40" fill="none" xmlns="http://www.w3.org/2000/svg">
<path d="M30.8456 26.9058C28.9291 26.9058 27.2024 27.7334 26.004 29.0499L15.2249 22.3739C15.5127 21.6372 15.6723 20.8371 15.6723 20C15.6723 19.1626 15.5127 18.3624 15.2249 17.626L26.004 10.9497C27.2024 12.2662 28.9291 13.0941 30.8456 13.0941C34.4558 13.0941 37.3928 10.1571 37.3928 6.54692C37.3928 2.9367 34.4558 0 30.8456 0C27.2354 0 24.2984 2.93701 24.2984 6.54723C24.2984 7.38432 24.4583 8.18449 24.7457 8.92118L13.967 15.5972C12.7685 14.2807 11.0419 13.4527 9.12535 13.4527C5.51513 13.4527 2.57812 16.39 2.57812 20C2.57812 23.6102 5.51513 26.5472 9.12535 26.5472C11.0419 26.5472 12.7685 25.7196 13.967 24.4027L24.7457 31.0787C24.4583 31.8154 24.2984 32.6156 24.2984 33.453C24.2984 37.0629 27.2354 39.9999 30.8456 39.9999C34.4558 39.9999 37.3928 37.0629 37.3928 33.453C37.3928 29.8428 34.4558 26.9058 30.8456 26.9058ZM26.6857 6.54723C26.6857 4.25353 28.5519 2.38739 30.8456 2.38739C33.1393 2.38739 35.0054 4.25353 35.0054 6.54723C35.0054 8.84092 33.1393 10.7071 30.8456 10.7071C28.5519 10.7071 26.6857 8.84092 26.6857 6.54723ZM9.12535 24.1598C6.83135 24.1598 4.9652 22.2937 4.9652 20C4.9652 17.7063 6.83135 15.8401 9.12535 15.8401C11.419 15.8401 13.2849 17.7063 13.2849 20C13.2849 22.2937 11.419 24.1598 9.12535 24.1598ZM26.6857 33.4527C26.6857 31.159 28.5519 29.2928 30.8456 29.2928C33.1393 29.2928 35.0054 31.159 35.0054 33.4527C35.0054 35.7464 33.1393 37.6125 30.8456 37.6125C28.5519 37.6125 26.6857 35.7464 26.6857 33.4527Z" fill="#C5A56F"/>
</svg>
