<svg width="60" height="60" viewBox="0 0 60 60" fill="none" xmlns="http://www.w3.org/2000/svg">
<g clip-path="url(#clip0_85_551)">
<path d="M2.08962 18.1347C3.24393 18.1347 4.17924 17.1992 4.17924 16.0451V7.13554L17.6378 20.5913C18.046 20.9992 18.5806 21.2031 19.1153 21.2031C19.6502 21.2031 20.1852 20.9992 20.5931 20.591C21.4091 19.775 21.4091 18.4518 20.5928 17.636L7.13369 4.17998H16.0452C17.1993 4.17998 18.1348 3.24438 18.1348 2.09035C18.1348 0.936326 17.1995 0.000732422 16.0452 0.000732422H2.08962C0.935315 0.000732422 0 0.936326 0 2.09035V16.0454C0 17.1992 0.935315 18.1347 2.08962 18.1347Z" fill="#C5A56F"/>
<path d="M57.9102 41.8654C56.7559 41.8654 55.8206 42.801 55.8206 43.955V52.8649L41.9477 38.9921C41.1314 38.176 39.8085 38.176 38.9924 38.9921C38.1764 39.8081 38.1764 41.1313 38.9924 41.9471L52.865 55.8196H43.9557C42.8014 55.8196 41.8661 56.7552 41.8661 57.9093C41.8661 59.0633 42.8014 59.9989 43.9557 59.9989H57.9105C59.0648 59.9989 60.0001 59.0633 60.0001 57.9093V43.955C59.9998 42.801 59.0642 41.8654 57.9102 41.8654Z" fill="#C5A56F"/>
<path d="M18.0522 38.9921L4.18071 52.8647V43.9551C4.18071 42.801 3.24539 41.8655 2.09109 41.8655C0.936779 41.8655 0.00146484 42.801 0.00146484 43.9551V57.9099C0.00146484 59.0639 0.936779 59.9995 2.09109 59.9995H16.0453C17.1993 59.9995 18.1349 59.0639 18.1349 57.9099C18.1349 56.7558 17.1996 55.8202 16.0453 55.8202H7.13571L21.0075 41.9471C21.8235 41.131 21.8235 39.8079 21.0072 38.9918C20.1917 38.176 18.8685 38.176 18.0522 38.9921Z" fill="#C5A56F"/>
<path d="M57.9104 0.000488281H43.9556C42.8013 0.000488281 41.866 0.936081 41.866 2.09011C41.866 3.24414 42.8013 4.17973 43.9556 4.17973H52.8655L39.4089 17.6372C38.5928 18.4532 38.5928 19.7764 39.4092 20.5925C39.8171 21.0003 40.352 21.2043 40.8867 21.2043C41.4213 21.2043 41.9563 21.0001 42.3644 20.5922L55.8211 7.13473V16.0449C55.8211 17.1989 56.7564 18.1345 57.9107 18.1345C59.065 18.1345 60.0003 17.1989 60.0003 16.0449V2.09011C60 0.935803 59.0644 0.000488281 57.9104 0.000488281Z" fill="#C5A56F"/>
</g>
<defs>
<clipPath id="clip0_85_551">
<rect width="60" height="60" fill="white"/>
</clipPath>
</defs>
</svg>
