<svg width="120" height="120" viewBox="0 0 120 120" fill="none" xmlns="http://www.w3.org/2000/svg">
<path d="M26.8411 29.6727L58.1508 41.9913C60.4875 42.91 60.6469 46.1538 58.4156 47.2975L50.7211 51.242L24.6047 64.6342L17.8992 46.1139L11.6696 28.9084C10.8164 26.5483 13.1438 24.2842 15.4805 25.203L19.1974 26.6652" stroke="#C5A56F" stroke-width="2" stroke-miterlimit="10" stroke-linecap="round" stroke-linejoin="round"/>
<path d="M108.33 28.9084L104.73 38.853L95.3953 64.6342L73.7742 53.5483L61.5844 47.2975C59.3531 46.1538 59.5125 42.91 61.8492 41.9913L97.6488 27.907L104.52 25.203C106.856 24.2842 109.184 26.5483 108.33 28.9084Z" stroke="#C5A56F" stroke-width="2" stroke-miterlimit="10" stroke-linecap="round" stroke-linejoin="round"/>
<path d="M50.721 51.2419L24.6046 64.6341L17.8992 46.1138L50.721 51.2419Z" stroke="#C5A56F" stroke-width="2" stroke-miterlimit="10" stroke-linecap="round" stroke-linejoin="round"/>
<path d="M95.141 22.5522C96.4657 23.984 97.3755 25.8255 97.6486 27.9067C98.35 33.2526 94.585 38.1548 89.2392 38.8563C83.8933 39.5578 78.9911 35.7928 78.2896 30.4469C77.5882 25.101 81.3532 20.1988 86.699 19.4974C87.0459 19.4519 87.3909 19.4252 87.7331 19.4165" stroke="#C5A56F" stroke-width="2" stroke-miterlimit="10" stroke-linecap="round" stroke-linejoin="round"/>
<path d="M24.604 64.6348L14.8132 89.5207" stroke="#C5A56F" stroke-width="2" stroke-miterlimit="10" stroke-linecap="round" stroke-linejoin="round"/>
<path d="M1.75781 92.4821L22.3512 100.584L14.8132 89.521L1.75781 92.4821Z" stroke="#C5A56F" stroke-width="2" stroke-miterlimit="10" stroke-linecap="round" stroke-linejoin="round"/>
<path d="M95.396 64.6348L105.187 89.5207" stroke="#C5A56F" stroke-width="2" stroke-miterlimit="10" stroke-linecap="round" stroke-linejoin="round"/>
<path d="M118.242 92.4821L97.6488 100.584L105.187 89.521L118.242 92.4821Z" stroke="#C5A56F" stroke-width="2" stroke-miterlimit="10" stroke-linecap="round" stroke-linejoin="round"/>
<path d="M78.6176 49.7827L69.2789 51.2419L95.3953 64.6341L102.101 46.1138L86.9651 48.4786" stroke="#C5A56F" stroke-width="2" stroke-miterlimit="10" stroke-linecap="round" stroke-linejoin="round"/>
<path d="M60 22.9292V30.6378" stroke="#C5A56F" stroke-width="2" stroke-miterlimit="10" stroke-linecap="round" stroke-linejoin="round"/>
<path d="M68.7671 28.3774L66.2307 32.4277" stroke="#C5A56F" stroke-width="2" stroke-miterlimit="10" stroke-linecap="round" stroke-linejoin="round"/>
<path d="M51.2328 28.3774L53.7692 32.4277" stroke="#C5A56F" stroke-width="2" stroke-miterlimit="10" stroke-linecap="round" stroke-linejoin="round"/>
</svg>
