<svg width="836" height="118" viewBox="0 0 836 118" fill="none" xmlns="http://www.w3.org/2000/svg">
<rect width="836" height="118" fill="#EDEAE5"/>
<mask id="mask0_26_3967" style="mask-type:alpha" maskUnits="userSpaceOnUse" x="0" y="0" width="836" height="118">
<rect width="836" height="118" fill="#EDEAE5"/>
</mask>
<g mask="url(#mask0_26_3967)">
<g opacity="0.5">
<path fill-rule="evenodd" clip-rule="evenodd" d="M836.032 9.55743C831.738 12.9614 829.902 17.4213 831.451 20.6519C828.785 18.0989 827.077 18.5875 826.247 21.8654C822.703 22.6534 823.15 24.8911 824.108 27.3023C828.769 25.8051 831.259 27.1447 832.664 29.871C833.286 33.6533 832.696 36.3008 827.923 35.0086C829.375 32.4556 828.657 31.0215 826.247 30.4857C821.506 32.361 822.783 34.8983 825.177 37.5773C831.451 40.2879 834.085 37.2937 835.952 33.086C835.394 37.4671 833.478 39.4999 831.259 40.5873C831.802 41.2807 832.744 41.4068 835.058 39.5472C835.138 42.4469 835.537 44.5429 836.032 46.0401V30.8167C835.266 26.6089 831.818 24.7178 827.779 23.7092C828.721 23.1104 830.333 23.0001 834.34 24.6233C834.468 22.1176 835.186 20.3052 836.016 18.9972V9.60466L836.032 9.55743Z" fill="white"/>
<path fill-rule="evenodd" clip-rule="evenodd" d="M764.199 80.475C759.905 83.879 758.085 88.3388 759.617 91.5695C756.951 89.0165 755.243 89.505 754.429 92.7829C750.87 93.5709 751.332 95.8087 752.29 98.2198C756.951 96.7227 759.442 98.0622 760.846 100.789C761.469 104.571 760.878 107.218 756.121 105.91C757.574 103.357 756.856 101.923 754.445 101.387C749.688 103.263 750.981 105.8 753.376 108.479C759.649 111.19 762.283 108.195 764.135 103.988C763.576 108.369 761.66 110.402 759.458 111.505C760 112.198 760.942 112.324 763.257 110.465C763.337 113.364 763.752 115.46 764.23 116.958C764.709 115.46 765.124 113.364 765.204 110.465C767.519 112.324 768.461 112.198 769.003 111.505C766.785 110.402 764.885 108.385 764.31 103.988C766.178 108.211 768.812 111.19 775.085 108.479C777.48 105.8 778.773 103.263 774.016 101.387C771.605 101.923 770.887 103.357 772.34 105.91C767.567 107.203 766.976 104.571 767.599 100.789C769.003 98.0622 771.494 96.7227 776.155 98.2198C777.113 95.8087 777.56 93.5709 774.016 92.7829C773.186 89.505 771.478 89.0165 768.828 91.5695C770.36 88.3388 768.413 83.6583 764.246 80.475H764.199ZM764.199 101.703C763.432 97.4792 759.984 95.6038 755.946 94.5952C756.903 93.9964 758.516 93.8861 762.507 95.4935C762.634 92.9878 763.353 91.1755 764.183 89.8832C765.029 91.1912 765.731 93.0035 765.859 95.4935C769.865 93.8703 771.478 93.9964 772.419 94.5952C768.381 95.588 764.949 97.4792 764.167 101.703H764.199Z" fill="white"/>
<path fill-rule="evenodd" clip-rule="evenodd" d="M692.365 9.55743C688.071 12.9614 686.236 17.4213 687.784 20.6519C685.118 18.0989 683.41 18.5875 682.58 21.8654C679.036 22.6534 679.483 24.8911 680.441 27.3023C685.102 25.8051 687.592 27.1447 688.997 29.871C689.62 33.6533 689.029 36.3008 684.256 35.0086C685.709 32.4556 684.99 31.0215 682.58 30.4857C677.823 32.361 679.116 34.8983 681.51 37.5773C687.784 40.2879 690.418 37.2937 692.269 33.086C691.711 37.4671 689.795 39.4999 687.592 40.5873C688.135 41.2807 689.077 41.4068 691.392 39.5472C691.471 42.4469 691.886 44.5429 692.365 46.0401C692.844 44.5429 693.259 42.4469 693.339 39.5472C695.654 41.4226 696.579 41.2807 697.138 40.5873C694.919 39.4999 693.02 37.4513 692.445 33.086C694.313 37.3095 696.947 40.2879 703.22 37.5773C705.615 34.8983 706.908 32.361 702.151 30.4857C699.74 31.0372 699.022 32.4556 700.474 35.0086C695.702 36.3008 695.111 33.669 695.733 29.871C697.138 27.1447 699.628 25.8051 704.29 27.3023C705.247 24.8911 705.694 22.6691 702.151 21.8654C701.321 18.5875 699.612 18.0989 696.963 20.6519C698.495 17.4213 696.564 12.7408 692.381 9.55743H692.365ZM692.365 30.7851C691.599 26.5774 688.151 24.6863 684.112 23.6777C685.054 23.0788 686.666 22.9685 690.673 24.5917C690.801 22.086 691.519 20.2737 692.349 18.9657C693.195 20.2737 693.898 22.086 694.025 24.5917C698.032 22.9685 699.644 23.0946 700.586 23.6777C696.548 24.6705 693.116 26.5774 692.333 30.7851H692.365Z" fill="white"/>
<path fill-rule="evenodd" clip-rule="evenodd" d="M620.532 80.475C616.238 83.879 614.402 88.3388 615.95 91.5695C613.285 89.0165 611.577 89.505 610.746 92.7829C607.203 93.5709 607.65 95.8087 608.607 98.2198C613.269 96.7227 615.759 98.0622 617.164 100.789C617.786 104.571 617.196 107.218 612.423 105.91C613.875 103.357 613.157 101.923 610.746 101.387C605.99 103.263 607.283 105.8 609.677 108.479C615.95 111.19 618.584 108.195 620.452 103.988C619.893 108.369 617.978 110.402 615.759 111.505C616.302 112.198 617.243 112.324 619.558 110.465C619.638 113.364 620.037 115.46 620.532 116.958C621.011 115.46 621.426 113.364 621.505 110.465C623.82 112.324 624.746 112.198 625.305 111.505C623.102 110.402 621.186 108.385 620.628 103.988C622.479 108.211 625.129 111.19 631.387 108.479C633.781 105.8 635.074 103.263 630.317 101.387C627.907 101.923 627.188 103.357 628.641 105.91C623.868 107.203 623.277 104.571 623.9 100.789C625.305 98.0622 627.795 96.7227 632.456 98.2198C633.414 95.8087 633.861 93.5709 630.317 92.7829C629.487 89.505 627.795 89.0165 625.129 91.5695C626.662 88.3388 624.73 83.6583 620.548 80.475H620.532ZM620.532 101.703C619.766 97.4792 616.318 95.6038 612.279 94.5952C613.221 93.9964 614.833 93.8861 618.84 95.4935C618.967 92.9878 619.686 91.1755 620.516 89.8832C621.362 91.1912 622.064 93.0035 622.192 95.4935C626.199 93.8703 627.811 93.9964 628.753 94.5952C624.73 95.588 621.282 97.4792 620.5 101.703H620.532Z" fill="white"/>
<path fill-rule="evenodd" clip-rule="evenodd" d="M548.698 9.55743C544.404 12.9614 542.585 17.4213 544.117 20.6519C541.451 18.0989 539.743 18.5875 538.929 21.8654C535.385 22.6534 535.832 24.8911 536.79 27.3023C541.451 25.8051 543.941 27.1447 545.346 29.871C545.969 33.6533 545.378 36.3008 540.605 35.0086C542.058 32.4556 541.34 31.0215 538.929 30.4857C534.172 32.361 535.465 34.8983 537.86 37.5773C544.133 40.2879 546.767 37.2937 548.619 33.086C548.06 37.4671 546.144 39.4999 543.941 40.5873C544.484 41.2807 545.426 41.4068 547.741 39.5472C547.82 42.4469 548.22 44.5429 548.714 46.0401C549.193 44.5429 549.608 42.4469 549.688 39.5472C552.003 41.4226 552.945 41.2807 553.487 40.5873C551.268 39.4999 549.369 37.4513 548.794 33.086C550.662 37.3095 553.296 40.2879 559.569 37.5773C561.964 34.8983 563.257 32.361 558.5 30.4857C556.073 31.0372 555.371 32.4556 556.824 35.0086C552.051 36.3008 551.46 33.669 552.083 29.871C553.487 27.1447 555.978 25.8051 560.639 27.3023C561.597 24.8911 562.044 22.6691 558.5 21.8654C557.67 18.5875 555.962 18.0989 553.312 20.6519C554.844 17.4213 552.897 12.7408 548.73 9.55743H548.698ZM548.698 30.7851C547.932 26.5774 544.484 24.6863 540.446 23.6777C541.403 23.0788 543.016 22.9685 547.006 24.5917C547.134 22.086 547.852 20.2737 548.682 18.9657C549.528 20.2737 550.231 22.086 550.359 24.5917C554.365 22.9685 555.978 23.0946 556.919 23.6777C552.897 24.6705 549.449 26.5774 548.667 30.7851H548.698Z" fill="white"/>
<path fill-rule="evenodd" clip-rule="evenodd" d="M476.865 80.475C472.571 83.879 470.736 88.3388 472.284 91.5695C469.618 89.0165 467.91 89.505 467.08 92.7829C463.536 93.5709 463.983 95.8087 464.941 98.2198C469.602 96.7227 472.092 98.0622 473.497 100.789C474.12 104.571 473.529 107.218 468.756 105.91C470.209 103.357 469.49 101.923 467.08 101.387C462.323 103.263 463.616 105.8 466.01 108.479C472.284 111.19 474.918 108.195 476.769 103.988C476.211 108.369 474.295 110.402 472.092 111.505C472.635 112.198 473.577 112.324 475.892 110.465C475.971 113.364 476.37 115.46 476.865 116.958C477.344 115.46 477.759 113.364 477.839 110.465C480.154 112.324 481.079 112.198 481.638 111.505C479.419 110.402 477.52 108.385 476.945 103.988C478.813 108.211 481.447 111.19 487.72 108.479C490.115 105.8 491.392 103.263 486.651 101.387C484.224 101.923 483.522 103.357 484.974 105.91C480.202 107.203 479.611 104.571 480.233 100.789C481.638 98.0622 484.128 96.7227 488.79 98.2198C489.747 95.8087 490.194 93.5709 486.651 92.7829C485.821 89.505 484.112 89.0165 481.463 91.5695C482.995 88.3388 481.064 83.6583 476.881 80.475H476.865ZM476.865 101.703C476.099 97.4792 472.651 95.6038 468.612 94.5952C469.554 93.9964 471.166 93.8861 475.173 95.4935C475.301 92.9878 476.019 91.1755 476.849 89.8832C477.695 91.1912 478.398 93.0035 478.525 95.4935C482.532 93.8703 484.144 93.9964 485.086 94.5952C481.064 95.588 477.616 97.4792 476.849 101.703H476.865Z" fill="white"/>
<path fill-rule="evenodd" clip-rule="evenodd" d="M405.032 9.55743C400.738 12.9614 398.902 17.4213 400.45 20.6519C397.785 18.0989 396.093 18.5875 395.246 21.8654C391.703 22.6534 392.15 24.8911 393.107 27.3023C397.769 25.8051 400.259 27.1447 401.664 29.871C402.286 33.6533 401.696 36.3008 396.923 35.0086C398.375 32.4556 397.657 31.0215 395.246 30.4857C390.49 32.361 391.783 34.8983 394.177 37.5773C400.45 40.2879 403.084 37.2937 404.952 33.086C404.393 37.4671 402.478 39.4999 400.259 40.5873C400.802 41.2807 401.743 41.4068 404.058 39.5472C404.138 42.4469 404.537 44.5429 405.032 46.0401C405.511 44.5429 405.926 42.4469 406.005 39.5472C408.32 41.4226 409.246 41.2807 409.805 40.5873C407.602 39.4999 405.686 37.4513 405.128 33.086C406.979 37.3095 409.629 40.2879 415.887 37.5773C418.281 34.8983 419.558 32.361 414.817 30.4857C412.391 31.0372 411.688 32.4556 413.141 35.0086C408.368 36.3008 407.777 33.669 408.4 29.871C409.805 27.1447 412.279 25.8051 416.956 27.3023C417.914 24.8911 418.361 22.6691 414.817 21.8654C413.987 18.5875 412.295 18.0989 409.629 20.6519C411.162 17.4213 409.23 12.7408 405.048 9.55743H405.032ZM405.032 30.7851C404.266 26.5774 400.818 24.6863 396.779 23.6777C397.721 23.0788 399.333 22.9685 403.34 24.5917C403.467 22.086 404.186 20.2737 405.016 18.9657C405.862 20.2737 406.564 22.086 406.692 24.5917C410.699 22.9685 412.311 23.0946 413.253 23.6777C409.23 24.6705 405.782 26.5774 405 30.7851H405.032Z" fill="white"/>
<path fill-rule="evenodd" clip-rule="evenodd" d="M333.198 80.475C328.904 83.879 327.085 88.3388 328.617 91.5695C325.951 89.0165 324.259 89.505 323.429 92.7829C319.869 93.5709 320.332 95.8087 321.29 98.2198C325.951 96.7227 328.441 98.0622 329.846 100.789C330.469 104.571 329.878 107.218 325.105 105.91C326.558 103.357 325.84 101.923 323.429 101.387C318.672 103.263 319.965 105.8 322.36 108.479C328.633 111.19 331.267 108.195 333.119 103.988C332.56 108.369 330.644 110.402 328.425 111.505C328.968 112.198 329.91 112.324 332.225 110.465C332.305 113.364 332.704 115.46 333.198 116.958C333.677 115.46 334.092 113.364 334.172 110.465C336.487 112.324 337.429 112.198 337.971 111.505C335.753 110.402 333.853 108.385 333.278 103.988C335.146 108.211 337.78 111.19 344.053 108.479C346.448 105.8 347.741 103.263 342.984 101.387C340.573 101.923 339.855 103.357 341.308 105.91C336.535 107.203 335.944 104.571 336.567 100.789C337.971 98.0622 340.446 96.7227 345.123 98.2198C346.081 95.8087 346.528 93.5709 342.984 92.7829C342.154 89.505 340.446 89.0165 337.796 91.5695C339.328 88.3388 337.381 83.6583 333.214 80.475H333.198ZM333.198 101.703C332.432 97.4792 328.984 95.6038 324.946 94.5952C325.903 93.9964 327.516 93.8861 331.506 95.4935C331.634 92.9878 332.352 91.1755 333.182 89.8832C334.029 91.1912 334.731 93.0035 334.859 95.4935C338.865 93.8703 340.478 93.9964 341.419 94.5952C337.397 95.588 333.949 97.4792 333.166 101.703H333.198Z" fill="white"/>
<path fill-rule="evenodd" clip-rule="evenodd" d="M261.365 9.55743C257.071 12.9614 255.236 17.4213 256.784 20.6519C254.118 18.0989 252.41 18.5875 251.58 21.8654C248.036 22.6534 248.483 24.8911 249.441 27.3023C254.102 25.8051 256.592 27.1447 257.997 29.871C258.62 33.6533 258.029 36.3008 253.256 35.0086C254.709 32.4556 253.99 31.0215 251.58 30.4857C246.823 32.361 248.116 34.8983 250.51 37.5773C256.784 40.2879 259.418 37.2937 261.27 33.086C260.711 37.4671 258.795 39.4999 256.576 40.5873C257.119 41.2807 258.061 41.4068 260.376 39.5472C260.455 42.4469 260.854 44.5429 261.349 46.0401C261.828 44.5429 262.243 42.4469 262.323 39.5472C264.638 41.4226 265.564 41.2807 266.122 40.5873C263.903 39.4999 262.004 37.4513 261.429 33.086C263.297 37.3095 265.931 40.2879 272.204 37.5773C274.599 34.8983 275.892 32.361 271.135 30.4857C268.724 31.0372 268.006 32.4556 269.459 35.0086C264.686 36.3008 264.095 33.669 264.718 29.871C266.122 27.1447 268.597 25.8051 273.274 27.3023C274.231 24.8911 274.678 22.6691 271.135 21.8654C270.305 18.5875 268.596 18.0989 265.947 20.6519C267.479 17.4213 265.548 12.7408 261.365 9.55743ZM261.365 30.7851C260.599 26.5774 257.151 24.6863 253.112 23.6777C254.054 23.0788 255.667 22.9685 259.673 24.5917C259.801 22.086 260.519 20.2737 261.349 18.9657C262.195 20.2737 262.898 22.086 263.025 24.5917C267.032 22.9685 268.644 23.0946 269.586 23.6777C265.564 24.6705 262.116 26.5774 261.333 30.7851H261.365Z" fill="white"/>
<path fill-rule="evenodd" clip-rule="evenodd" d="M189.532 80.475C185.238 83.879 183.402 88.3388 184.95 91.5695C182.285 89.0165 180.593 89.505 179.746 92.7829C176.203 93.5709 176.65 95.8087 177.607 98.2198C182.269 96.7227 184.759 98.0622 186.164 100.789C186.786 104.571 186.196 107.218 181.423 105.91C182.875 103.357 182.157 101.923 179.746 101.387C174.99 103.263 176.283 105.8 178.677 108.479C184.95 111.19 187.584 108.195 189.452 103.988C188.893 108.369 186.978 110.402 184.759 111.505C185.302 112.198 186.243 112.324 188.558 110.465C188.638 113.364 189.037 115.46 189.532 116.958C190.027 115.46 190.426 113.364 190.506 110.465C192.82 112.324 193.746 112.198 194.305 111.505C192.086 110.402 190.186 108.385 189.612 103.988C191.463 108.211 194.113 111.19 200.371 108.479C202.765 105.8 204.058 103.263 199.301 101.387C196.891 101.923 196.172 103.357 197.625 105.91C192.852 107.203 192.261 104.571 192.884 100.789C194.289 98.0622 196.779 96.7227 201.44 98.2198C202.398 95.8087 202.845 93.5709 199.301 92.7829C198.471 89.505 196.779 89.0165 194.113 91.5695C195.646 88.3388 193.714 83.6583 189.532 80.475ZM189.532 101.703C188.766 97.4792 185.318 95.6038 181.279 94.5952C182.221 93.9964 183.833 93.8861 187.84 95.4935C187.967 92.9878 188.686 91.1755 189.516 89.8832C190.362 91.1912 191.064 93.0035 191.192 95.4935C195.199 93.8703 196.811 93.9964 197.753 94.5952C193.714 95.588 190.282 97.4792 189.5 101.703H189.532Z" fill="white"/>
<path fill-rule="evenodd" clip-rule="evenodd" d="M117.699 9.55743C113.405 12.9614 111.585 17.4213 113.117 20.6519C110.451 18.0989 108.759 18.5875 107.929 21.8654C104.386 22.6534 104.832 24.8911 105.79 27.3023C110.451 25.8051 112.942 27.1447 114.346 29.871C114.969 33.6533 114.378 36.3008 109.621 35.0086C111.074 32.4556 110.356 31.0215 107.945 30.4857C103.204 32.361 104.481 34.8983 106.876 37.5773C113.149 40.2879 115.783 37.2937 117.635 33.086C117.076 37.4671 115.161 39.4999 112.958 40.5873C113.5 41.2807 114.442 41.4068 116.757 39.5472C116.837 42.4469 117.252 44.5429 117.731 46.0401C118.225 44.5429 118.624 42.4469 118.704 39.5472C121.019 41.4226 121.961 41.2807 122.503 40.5873C120.285 39.4999 118.385 37.4513 117.81 33.086C119.678 37.3095 122.312 40.2879 128.585 37.5773C130.98 34.8983 132.273 32.361 127.516 30.4857C125.105 31.0372 124.387 32.4556 125.84 35.0086C121.067 36.3008 120.476 33.669 121.099 29.871C122.503 27.1447 124.994 25.8051 129.655 27.3023C130.613 24.8911 131.06 22.6691 127.516 21.8654C126.686 18.5875 124.978 18.0989 122.328 20.6519C123.86 17.4213 121.913 12.7408 117.747 9.55743H117.699ZM117.699 30.7851C116.932 26.5774 113.484 24.6863 109.446 23.6777C110.404 23.0788 112.016 22.9685 116.007 24.5917C116.134 22.086 116.853 20.2737 117.683 18.9657C118.529 20.2737 119.231 22.086 119.359 24.5917C123.365 22.9685 124.978 23.0946 125.92 23.6777C121.897 24.6705 118.449 26.5774 117.667 30.7851H117.699Z" fill="white"/>
<path fill-rule="evenodd" clip-rule="evenodd" d="M45.8653 80.475C41.5712 83.879 39.7355 88.3388 41.2839 91.5695C38.6181 89.0165 36.9101 89.505 36.08 92.7829C32.5362 93.5709 32.9832 95.8087 33.9409 98.2198C38.6021 96.7227 41.0924 98.0622 42.4971 100.789C43.1196 104.571 42.529 107.218 37.7561 105.91C39.2087 103.357 38.4904 101.923 36.08 101.387C31.323 103.263 32.616 105.8 35.0105 108.479C41.2839 111.19 43.9178 108.195 45.7695 103.988C45.2108 108.369 43.2952 110.402 41.0924 111.505C41.6351 112.198 42.5769 112.324 44.8915 110.465C44.9714 113.364 45.3864 115.46 45.8653 116.958C46.3442 115.46 46.7592 113.364 46.839 110.465C49.1537 112.324 50.0795 112.198 50.6382 111.505C48.4194 110.402 46.5198 108.385 45.9451 103.988C47.8128 108.211 50.4466 111.19 56.7201 108.479C59.1145 105.8 60.4075 103.263 55.6506 101.387C53.2402 101.923 52.5218 103.357 53.9745 105.91C49.2015 107.203 48.6109 104.571 49.2335 100.789C50.6382 98.0622 53.1284 96.7227 57.7896 98.2198C58.7474 95.8087 59.1944 93.5709 55.6506 92.7829C54.8205 89.505 53.1125 89.0165 50.4626 91.5695C51.9951 88.3388 50.0635 83.6583 45.8812 80.475H45.8653ZM45.8653 101.703C45.0991 97.4792 41.6511 95.6038 37.6124 94.5952C38.5542 93.9964 40.1665 93.8861 44.1732 95.4935C44.3009 92.9878 45.0192 91.1755 45.8493 89.8832C46.6954 91.1912 47.3977 93.0035 47.5254 95.4935C51.5321 93.8703 53.1444 93.9964 54.0862 94.5952C50.0476 95.588 46.6155 97.4792 45.8334 101.703H45.8653Z" fill="white"/>
<path fill-rule="evenodd" clip-rule="evenodd" d="M763.592 -28.2166C763.592 -7.39858 771.701 11.4495 784.807 25.1128C797.912 38.7603 816.03 47.223 836.032 47.223V46.041C816.366 46.041 798.567 37.736 785.669 24.3091C772.771 10.8664 764.789 -7.69799 764.789 -28.2008H763.592V-28.2166Z" fill="white"/>
<path fill-rule="evenodd" clip-rule="evenodd" d="M763.592 113.617C763.592 134.435 771.701 153.283 784.807 166.93C797.912 180.594 816.03 189.04 836.032 189.04V187.859C816.366 187.859 798.567 179.553 785.669 166.127C772.771 152.7 764.789 134.135 764.789 113.617H763.592Z" fill="white"/>
<path fill-rule="evenodd" clip-rule="evenodd" d="M691.775 42.7002C691.775 63.5182 699.884 82.3663 712.973 96.0296C726.079 109.677 744.197 118.124 764.199 118.124C784.2 118.124 802.318 109.677 815.424 96.0296C826.454 84.5411 833.941 69.3648 836.032 52.4394V42.7002H835.425C835.425 63.203 827.444 81.7674 814.546 95.21C801.664 108.637 783.849 116.942 764.183 116.942C744.516 116.942 726.718 108.637 713.819 95.21C700.921 81.7674 692.94 63.203 692.94 42.7002H691.743H691.775Z" fill="white"/>
<path fill-rule="evenodd" clip-rule="evenodd" d="M619.925 -28.2166C619.925 -7.39858 628.034 11.4495 641.124 25.1128C654.23 38.7603 672.348 47.223 692.349 47.223C712.351 47.223 730.469 38.7761 743.574 25.1128C756.68 11.4653 764.773 -7.39858 764.773 -28.2166H763.576C763.576 -7.71376 755.61 10.8507 742.696 24.2933C729.814 37.7202 712 46.0253 692.333 46.0253C672.667 46.0253 654.852 37.7202 641.97 24.2933C629.072 10.8507 621.091 -7.71376 621.091 -28.2166H619.893H619.925Z" fill="white"/>
<path fill-rule="evenodd" clip-rule="evenodd" d="M619.925 113.617C619.925 134.435 628.034 153.283 641.124 166.93C654.23 180.594 672.348 189.04 692.349 189.04C712.351 189.04 730.469 180.594 743.574 166.93C756.68 153.283 764.773 134.435 764.773 113.617H763.576C763.576 134.119 755.61 152.684 742.696 166.127C729.814 179.553 712 187.859 692.333 187.859C672.667 187.859 654.852 179.553 641.97 166.127C629.072 152.7 621.091 134.135 621.091 113.617H619.893H619.925Z" fill="white"/>
<path fill-rule="evenodd" clip-rule="evenodd" d="M548.092 42.7002C548.092 63.5182 556.201 82.3663 569.307 96.0296C582.412 109.677 600.53 118.124 620.532 118.124C640.534 118.124 658.652 109.677 671.757 96.0296C684.863 82.382 692.972 63.5182 692.972 42.7002H691.775C691.775 63.203 683.793 81.7674 670.895 95.21C657.997 108.637 640.198 116.942 620.532 116.942C600.866 116.942 583.067 108.637 570.169 95.21C557.271 81.7674 549.289 63.203 549.289 42.7002H548.092Z" fill="white"/>
<path fill-rule="evenodd" clip-rule="evenodd" d="M476.275 -28.2166C476.275 -7.39858 484.384 11.4495 497.473 25.1128C510.579 38.7603 528.697 47.223 548.699 47.223C568.7 47.223 586.818 38.7761 599.924 25.1128C613.029 11.4653 621.123 -7.39858 621.123 -28.2166H619.925C619.925 -7.71376 611.944 10.8507 599.046 24.2933C586.164 37.7202 568.349 46.0253 548.683 46.0253C529.016 46.0253 511.218 37.7202 498.319 24.2933C485.421 10.8507 477.44 -7.71376 477.44 -28.2166H476.243H476.275Z" fill="white"/>
<path fill-rule="evenodd" clip-rule="evenodd" d="M476.275 113.617C476.275 134.435 484.384 153.283 497.473 166.93C510.579 180.594 528.697 189.04 548.699 189.04C568.7 189.04 586.818 180.594 599.924 166.93C613.029 153.283 621.123 134.435 621.123 113.617H619.925C619.925 134.119 611.944 152.684 599.046 166.127C586.164 179.553 568.349 187.859 548.683 187.859C529.016 187.859 511.218 179.553 498.319 166.127C485.421 152.7 477.44 134.135 477.44 113.617H476.243H476.275Z" fill="white"/>
<path fill-rule="evenodd" clip-rule="evenodd" d="M404.441 42.7002C404.441 63.5182 412.55 82.3663 425.64 96.0296C438.746 109.677 456.863 118.124 476.865 118.124C496.867 118.124 514.985 109.677 528.09 96.0296C541.196 82.382 549.289 63.5182 549.289 42.7002H548.092C548.092 63.203 540.126 81.7674 527.212 95.21C514.33 108.637 496.515 116.942 476.849 116.942C457.183 116.942 439.368 108.637 426.486 95.21C413.588 81.7674 405.606 63.203 405.606 42.7002H404.409H404.441Z" fill="white"/>
<path fill-rule="evenodd" clip-rule="evenodd" d="M332.592 -28.2166C332.592 -7.39858 340.701 11.4495 353.807 25.1128C366.912 38.7603 385.03 47.223 405.032 47.223C425.034 47.223 443.152 38.7761 456.257 25.1128C469.363 11.4653 477.472 -7.39858 477.472 -28.2166H476.275C476.275 -7.71376 468.293 10.8507 455.395 24.2933C442.497 37.7202 424.698 46.0253 405.032 46.0253C385.366 46.0253 367.567 37.7202 354.669 24.2933C341.771 10.8507 333.789 -7.71376 333.789 -28.2166H332.592Z" fill="white"/>
<path fill-rule="evenodd" clip-rule="evenodd" d="M332.592 113.617C332.592 134.435 340.701 153.283 353.807 166.93C366.912 180.594 385.03 189.04 405.032 189.04C425.034 189.04 443.152 180.594 456.257 166.93C469.363 153.283 477.472 134.435 477.472 113.617H476.275C476.275 134.119 468.293 152.684 455.395 166.127C442.497 179.553 424.698 187.859 405.032 187.859C385.366 187.859 367.567 179.553 354.669 166.127C341.771 152.7 333.789 134.135 333.789 113.617H332.592Z" fill="white"/>
<path fill-rule="evenodd" clip-rule="evenodd" d="M260.775 42.7002C260.775 63.5182 268.884 82.3663 281.973 96.0296C295.079 109.677 313.197 118.124 333.199 118.124C353.2 118.124 371.318 109.677 384.424 96.0296C397.529 82.382 405.623 63.5182 405.623 42.7002H404.425C404.425 63.203 396.444 81.7674 383.546 95.21C370.664 108.637 352.849 116.942 333.183 116.942C313.516 116.942 295.718 108.637 282.819 95.21C269.921 81.7674 261.94 63.203 261.94 42.7002H260.743H260.775Z" fill="white"/>
<path fill-rule="evenodd" clip-rule="evenodd" d="M188.925 -28.2166C188.925 -7.39858 197.035 11.4495 210.124 25.1128C223.23 38.7603 241.348 47.223 261.349 47.223C281.351 47.223 299.469 38.7761 312.575 25.1128C325.68 11.4653 333.773 -7.39858 333.773 -28.2166H332.576C332.576 -7.71376 324.595 10.8507 311.697 24.2933C298.814 37.7202 281 46.0253 261.333 46.0253C241.667 46.0253 223.852 37.7202 210.97 24.2933C198.072 10.8507 190.091 -7.71376 190.091 -28.2166H188.894H188.925Z" fill="white"/>
<path fill-rule="evenodd" clip-rule="evenodd" d="M188.925 113.617C188.925 134.435 197.035 153.283 210.124 166.93C223.23 180.594 241.348 189.04 261.349 189.04C281.351 189.04 299.469 180.594 312.575 166.93C325.68 153.283 333.773 134.435 333.773 113.617H332.576C332.576 134.119 324.595 152.684 311.697 166.127C298.814 179.553 281 187.859 261.333 187.859C241.667 187.859 223.852 179.553 210.97 166.127C198.072 152.7 190.091 134.135 190.091 113.617H188.894H188.925Z" fill="white"/>
<path fill-rule="evenodd" clip-rule="evenodd" d="M117.092 42.7002C117.092 63.5182 125.201 82.3663 138.307 96.0296C151.412 109.677 169.53 118.124 189.532 118.124C209.534 118.124 227.652 109.677 240.757 96.0296C253.863 82.382 261.972 63.5182 261.972 42.7002H260.775C260.775 63.203 252.793 81.7674 239.895 95.21C226.997 108.637 209.198 116.942 189.532 116.942C169.866 116.942 152.067 108.637 139.169 95.21C126.271 81.7674 118.289 63.203 118.289 42.7002H117.092Z" fill="white"/>
<path fill-rule="evenodd" clip-rule="evenodd" d="M45.2746 -28.2166C45.2746 -7.39858 53.3838 11.4495 66.4734 25.1128C79.579 38.7603 97.697 47.223 117.699 47.223C137.7 47.223 155.818 38.7761 168.924 25.1128C182.029 11.4653 190.123 -7.39858 190.123 -28.2166H188.925C188.925 -7.71376 180.944 10.8507 168.046 24.2933C155.164 37.7202 137.349 46.0253 117.683 46.0253C98.0162 46.0253 80.2175 37.7202 67.3194 24.2933C54.4214 10.8507 46.4399 -7.71376 46.4399 -28.2166H45.2427H45.2746Z" fill="white"/>
<path fill-rule="evenodd" clip-rule="evenodd" d="M45.2746 113.617C45.2746 134.435 53.3838 153.283 66.4734 166.93C79.579 180.594 97.697 189.04 117.699 189.04C137.7 189.04 155.818 180.594 168.924 166.93C182.029 153.283 190.123 134.435 190.123 113.617H188.925C188.925 134.119 180.944 152.684 168.046 166.127C155.164 179.553 137.349 187.859 117.683 187.859C98.0162 187.859 80.2175 179.553 67.3194 166.127C54.4214 152.7 46.4399 134.135 46.4399 113.617H45.2427H45.2746Z" fill="white"/>
<path fill-rule="evenodd" clip-rule="evenodd" d="M-25.9681 52.4394C-23.8769 69.3648 -16.3903 84.5411 -5.35989 96.0296C7.7457 109.677 25.8637 118.124 45.8653 118.124C65.8668 118.124 83.9848 109.677 97.0904 96.0296C110.196 82.382 118.289 63.5182 118.289 42.7002H117.092C117.092 63.203 109.126 81.7674 96.2124 95.21C83.3303 108.637 65.5157 116.942 45.8493 116.942C26.1829 116.942 8.36826 108.637 -4.51385 95.21C-17.4119 81.7674 -25.3934 63.203 -25.3934 42.7002H-26V52.4394H-25.9681Z" fill="white"/>
<path fill-rule="evenodd" clip-rule="evenodd" d="M-25.968 47.2074C-5.96642 47.2074 12.1515 38.7605 25.2571 25.0972C38.3627 11.4497 46.4719 -7.4142 46.4719 -28.2322H45.2747C45.2747 -7.72939 37.2932 10.835 24.3951 24.2777C11.4971 37.7046 -6.30165 46.0097 -25.968 46.0097V47.1916L-25.968 47.2074Z" fill="white"/>
<path fill-rule="evenodd" clip-rule="evenodd" d="M-25.968 189.04C-5.96642 189.04 12.1515 180.594 25.2571 166.93C38.3627 153.283 46.4719 134.435 46.4719 113.617H45.2747C45.2747 134.119 37.2932 152.684 24.3951 166.127C11.4971 179.553 -6.30165 187.859 -25.968 187.859L-25.968 189.04Z" fill="white"/>
<path fill-rule="evenodd" clip-rule="evenodd" d="M836.032 42.7002H835.425C835.425 45.9939 835.633 49.2403 836.032 52.4394V42.7002Z" fill="white"/>
</g>
</g>
</svg>
